<?xml version="1.0" encoding="UTF-8"?>
<svg xmlns="http://www.w3.org/2000/svg" xmlns:xlink="http://www.w3.org/1999/xlink" width="375pt" height="374.999991pt" viewBox="0 0 375 374.999991" version="1.2">
<defs>
<clipPath id="clip1">
  <path d="M 85.925781 0 L 289.058594 0 L 289.058594 374.996094 L 85.925781 374.996094 Z M 85.925781 0 "/>
</clipPath>
</defs>
<g id="surface1">
<g clip-path="url(#clip1)" clip-rule="nonzero">
<path style=" stroke:none;fill-rule:nonzero;fill:rgb(0%,0%,0%);fill-opacity:1;" d="M 224.566406 134.238281 C 224.566406 134.238281 249.355469 123.621094 251.871094 120.480469 C 251.871094 120.480469 242.605469 132.726562 237.644531 136.1875 C 234.28125 138.570312 226.636719 143.097656 226.636719 143.097656 Z M 86.007812 339.070312 C 89.261719 347.894531 89.644531 346 93.132812 349.167969 C 97.273438 352.910156 92.210938 354.546875 99.179688 366.4375 C 101.75 370.820312 108.925781 375.058594 114.234375 374.996094 C 121.144531 374.921875 119.175781 366.210938 118.542969 361.847656 C 117.507812 354.566406 122.625 353.1875 123.691406 347.574219 C 124.808594 341.8125 144.503906 333.859375 149.433594 330.65625 C 152.601562 328.59375 156.578125 324.441406 160.140625 323.230469 C 161.953125 322.617188 164.074219 323 165.957031 322.492188 C 168.589844 321.820312 181.015625 312.664062 181.292969 311.71875 C 182.597656 307.441406 189.515625 302.832031 192.144531 298.582031 C 195.367188 293.371094 193.398438 293.25 191.679688 292.121094 C 190.757812 291.539062 186.667969 289.167969 186.667969 289.167969 C 186.667969 289.167969 201.496094 269.761719 206.011719 261.589844 C 210.527344 267.265625 215.421875 270.355469 220.828125 275.203125 C 226.96875 280.722656 240.007812 290.617188 240.007812 290.617188 C 240.007812 290.617188 238.546875 306.351562 238.484375 312.464844 C 238.378906 322.078125 242.8125 330.832031 235.554688 338.839844 C 235.253906 347.863281 226.453125 357.601562 239.21875 360.78125 C 244.160156 362.015625 252.773438 359.765625 256.160156 364.210938 C 260.011719 369.257812 263.285156 371.816406 270.789062 372.125 C 288.703125 372.871094 295.757812 361.257812 281.34375 354.792969 C 276.558594 351.726562 271.144531 347.429688 268.65625 345.304688 C 268.65625 345.304688 269.238281 342.464844 267.46875 337.484375 C 266.472656 334.695312 269.714844 330.90625 270.875 328.730469 C 274.320312 322.214844 276.671875 315.355469 278.929688 308.382812 C 280.917969 302.148438 280.515625 304.539062 284.242188 299.265625 C 285.132812 298.003906 288.445312 284.277344 287.867188 282.742188 C 287.121094 280.859375 285.949219 278.339844 285.753906 276.238281 C 284.90625 270.664062 285.496094 266.179688 284.582031 260.242188 C 282.441406 246.089844 270.46875 263.132812 267.953125 267.734375 C 263.730469 253.570312 256.097656 244.269531 247.667969 232.613281 C 244.769531 228.585938 237.625 222.234375 236.691406 217.25 C 236.019531 213.605469 233.9375 210.195312 230.84375 208.050781 C 228.324219 206.320312 224.121094 207.65625 222.164062 206.03125 C 222.921875 206.558594 226.636719 198.210938 226.472656 196.964844 C 225.832031 192.65625 222.390625 189.402344 221.84375 184.878906 C 220.941406 177.242188 220.21875 161.527344 220.21875 161.527344 C 220.21875 161.527344 226.203125 165.835938 229.796875 164.894531 C 227.910156 168.011719 228.355469 168.890625 230.003906 168.40625 C 232.746094 167.597656 238.847656 162.988281 243.269531 158.574219 C 247.128906 154.742188 254.597656 147.726562 258.777344 141.492188 C 261.046875 138.132812 257.980469 138.011719 262.433594 134.808594 C 264.722656 133.171875 268.6875 133.390625 271.371094 132.789062 C 283.546875 130.042969 276.339844 118.183594 277.023438 111.136719 C 277.273438 108.753906 274.890625 106.433594 275.417969 104.601562 C 276.1875 102.3125 270.996094 95.164062 269.828125 93.195312 C 266.867188 88.023438 268.59375 88.574219 263.769531 86.234375 C 261.554688 85.03125 253.25 85.34375 252.546875 83.851562 C 242.75 62.914062 232.828125 40.960938 225.625 18.96875 C 224.585938 15.796875 222.445312 9.4375 220.539062 2.070312 C 220.226562 0.808594 218.984375 0.289062 218.011719 0.207031 C 215.507812 -0.03125 213.382812 -0.609375 212.949219 2.570312 C 212.160156 8.558594 213.613281 15.320312 215.257812 23.558594 C 220.207031 48.296875 245.910156 86.027344 245.910156 86.027344 C 245.910156 86.027344 245.039062 87.457031 245.523438 90.78125 C 246.105469 94.644531 247.988281 100.664062 246.996094 103.988281 C 246.738281 105.617188 244.25 105.585938 241.433594 106.777344 C 236.214844 109.023438 229 112.019531 226.886719 112.980469 C 222.898438 114.804688 216.65625 116.992188 216.65625 116.992188 C 216.65625 116.992188 212.492188 113.59375 209.863281 109.492188 C 207.679688 106.144531 206.621094 106.878906 207.5625 104.300781 C 208.382812 104.433594 209.054688 104.519531 209.582031 104.558594 C 210.898438 104.609375 211.363281 104.339844 211.5625 103.988281 C 211.914062 103.285156 211.136719 102.300781 209.085938 100.765625 C 209.4375 99.9375 209.75 99.128906 210.039062 98.3125 C 211.683594 98.738281 212.597656 98.902344 213.082031 98.921875 C 213.632812 98.933594 213.703125 98.808594 213.746094 98.644531 C 213.910156 98.25 213.851562 97.96875 210.578125 96.4375 C 211.210938 94.054688 211.53125 91.597656 211.4375 89.050781 C 214.386719 89.113281 218.984375 90.851562 217.785156 88.292969 C 217.347656 87.382812 213.226562 84.128906 213.226562 84.128906 C 213.226562 84.128906 213.34375 78.484375 213.21875 77.449219 C 211.488281 64.144531 197.28125 58.230469 185.382812 60.707031 C 173.953125 63.070312 172.492188 73.097656 171.757812 80.929688 C 170.546875 94.054688 175.207031 95.835938 172.9375 99.246094 C 169.707031 102.859375 161.433594 95.648438 163.886719 104.785156 C 165.410156 110.414062 164.363281 111.097656 161.414062 116.554688 C 153.800781 130.28125 153.5 138.847656 158.328125 153.890625 C 161.847656 164.933594 157.789062 176.941406 161.144531 187.683594 C 162.914062 193.050781 160.023438 198.5 159.726562 203.917969 C 159.414062 209.71875 166.105469 206.683594 163.140625 212.121094 C 158.710938 220.285156 159.570312 235.648438 159.589844 245.023438 C 159.632812 251.023438 157.746094 246.847656 157.355469 252.792969 C 157.105469 256.296875 157.34375 277.90625 154.753906 280.464844 C 153.699219 281.40625 149.910156 285.53125 149.847656 286.878906 C 149.050781 293.859375 145.351562 291.851562 139.761719 294.179688 C 131.15625 297.753906 124.4375 304.445312 117.050781 314.652344 C 113.035156 320.183594 106.273438 326.472656 99.707031 330.667969 C 98.339844 331.539062 94.25 332.605469 93.058594 333.359375 C 91.984375 334.042969 85.128906 336.625 86.007812 339.070312 "/>
</g>
</g>
</svg>
