<?xml version="1.0" encoding="UTF-8"?>
<svg xmlns="http://www.w3.org/2000/svg" xmlns:xlink="http://www.w3.org/1999/xlink" width="375pt" height="374.999991pt" viewBox="0 0 375 374.999991" version="1.2">
<defs>
<clipPath id="clip1">
  <path d="M 90 0 L 299.054688 0 L 299.054688 370 L 90 370 Z M 90 0 "/>
</clipPath>
</defs>
<g id="surface1">
<g clip-path="url(#clip1)" clip-rule="nonzero">
<path style=" stroke:none;fill-rule:nonzero;fill:rgb(0%,0%,0%);fill-opacity:1;" d="M 122.425781 1.035156 C 118.0625 2.632812 115.578125 3.949219 114.546875 5.167969 C 113 7.046875 109.011719 15.921875 108.496094 18.597656 C 108.214844 20.195312 108.167969 23.339844 108.355469 26.625 C 108.589844 31.039062 108.871094 32.261719 109.667969 33.386719 C 110.324219 34.28125 110.792969 35.875 110.980469 37.800781 C 111.21875 39.867188 111.6875 41.417969 112.671875 42.964844 C 114.734375 46.300781 114.96875 46.722656 116.703125 50.949219 L 118.34375 54.847656 L 115.34375 56.300781 C 113.703125 57.097656 111.125 58.742188 109.667969 59.917969 C 108.167969 61.136719 105.964844 62.6875 104.792969 63.34375 C 101.835938 65.082031 99.867188 67.476562 97.851562 71.65625 C 96.394531 74.753906 96.207031 75.644531 96.207031 78.511719 C 96.253906 81.28125 96.585938 82.5 98.226562 86.351562 L 100.148438 90.90625 L 100.101562 99.96875 C 100.054688 107.105469 99.867188 109.875 99.164062 112.976562 C 98.320312 116.542969 98.226562 118.9375 98.226562 139.503906 C 98.226562 169.648438 98.367188 167.207031 96.019531 173.59375 C 94.894531 176.550781 93.253906 180.402344 92.363281 182.140625 L 90.722656 185.332031 L 91.988281 186.976562 C 92.972656 188.289062 93.300781 189.417969 93.675781 192.703125 C 93.910156 194.957031 94.332031 197.164062 94.566406 197.585938 C 94.800781 198.054688 96.113281 199.042969 97.523438 199.839844 C 99.398438 200.96875 100.617188 201.296875 102.445312 201.296875 C 104.417969 201.296875 104.839844 201.15625 104.839844 200.453125 C 104.839844 199.230469 103.902344 198.480469 102.445312 198.480469 C 101.695312 198.480469 100.523438 197.960938 99.820312 197.304688 L 98.507812 196.179688 L 101.320312 196.085938 C 102.867188 196.039062 104.371094 196.085938 104.605469 196.132812 C 106.808594 196.789062 108.027344 196.648438 108.308594 195.753906 C 108.496094 195.238281 109.199219 194.722656 109.996094 194.535156 C 111.921875 194.160156 111.921875 192.515625 110.042969 191.765625 C 109.105469 191.4375 108.589844 190.824219 108.402344 189.886719 C 107.933594 187.539062 108.074219 187.257812 109.996094 186.695312 C 111.546875 186.222656 111.875 185.894531 111.78125 185.144531 C 111.6875 184.628906 111.171875 183.921875 110.558594 183.640625 C 109.621094 183.171875 109.574219 183.03125 110.230469 182.515625 C 111.21875 181.714844 111.125 180.777344 109.996094 180.402344 C 109.246094 180.167969 109.058594 179.699219 109.058594 177.914062 C 109.058594 176.691406 108.730469 174.578125 108.402344 173.21875 C 107.886719 171.292969 107.839844 169.273438 108.121094 163.59375 C 108.542969 156.5 109.433594 151.804688 111.359375 146.59375 C 112.625 143.261719 115.90625 128.328125 116.75 122.179688 C 117.453125 117.199219 118.207031 114.148438 118.910156 113.351562 C 119.425781 112.742188 122.144531 118.796875 123.175781 122.835938 C 123.691406 124.808594 124.300781 128.421875 124.535156 130.910156 C 124.769531 133.351562 125.238281 136.03125 125.519531 136.78125 C 126.179688 138.378906 126.835938 148.050781 127.070312 160.539062 C 127.164062 165.800781 127.492188 169.976562 127.820312 171.058594 C 128.382812 172.652344 128.335938 172.890625 127.585938 173.359375 C 125.476562 174.53125 124.910156 175.519531 125.191406 177.300781 C 125.425781 178.804688 125.285156 179.085938 124.066406 179.792969 C 122.378906 180.777344 122.332031 181.292969 123.832031 184.109375 L 125.003906 186.316406 L 123.082031 188.898438 C 120.925781 191.71875 120.222656 194.863281 121.207031 196.789062 C 121.675781 197.632812 121.582031 198.246094 120.738281 200.402344 C 120.175781 201.765625 119.144531 204.816406 118.441406 207.164062 C 117.6875 209.464844 116.5625 212.753906 115.859375 214.398438 C 114.5 217.636719 114.5 219.1875 115.859375 223.222656 C 116.234375 224.351562 116.75 228.4375 117.03125 232.378906 C 117.96875 245.574219 118.015625 245.949219 119.894531 249 C 120.832031 250.503906 123.222656 255.339844 125.191406 259.660156 C 127.164062 264.027344 129.507812 268.722656 130.398438 270.085938 C 132.648438 273.464844 146.296875 286.894531 151.457031 290.839844 C 155.304688 293.75 155.820312 294.359375 157.742188 298.023438 C 158.914062 300.230469 160.320312 302.71875 160.929688 303.609375 C 161.917969 305.066406 161.964844 305.253906 161.257812 306.332031 C 160.648438 307.273438 160.601562 307.742188 161.117188 309.574219 C 161.679688 311.546875 161.632812 311.734375 160.601562 312.90625 C 159.757812 313.847656 159.664062 314.082031 160.320312 313.847656 C 160.835938 313.65625 161.117188 313.800781 161.117188 314.175781 C 161.117188 314.503906 161.632812 315.347656 162.292969 316.054688 C 163.042969 316.851562 163.464844 317.882812 163.464844 318.824219 C 163.464844 320.371094 163.792969 321.734375 165.058594 325.019531 L 165.761719 326.898438 L 165.808594 324.363281 C 165.808594 322.859375 165.996094 321.96875 166.230469 322.25 C 166.746094 322.8125 168.292969 328.214844 169.328125 333.003906 C 171.296875 342.160156 175.421875 348.261719 179.691406 348.261719 C 181.191406 348.261719 184.523438 346.339844 186.398438 344.320312 C 187.054688 343.660156 187.945312 343.097656 188.460938 343.097656 C 189.210938 343.097656 189.351562 342.863281 189.070312 341.644531 C 188.742188 340 189.445312 338.402344 190.429688 338.402344 C 191.324219 338.402344 191.371094 336.382812 190.523438 335.679688 C 190.195312 335.398438 189.914062 334.082031 189.820312 332.722656 C 189.773438 331.03125 189.164062 328.917969 187.617188 325.539062 C 185.132812 319.902344 184.242188 317.039062 183.820312 313.46875 C 183.535156 311.027344 183.585938 310.792969 184.523438 310.464844 C 185.695312 310.089844 185.882812 308.164062 184.804688 307.132812 C 183.773438 306.097656 183.914062 303.796875 185.039062 303.1875 C 186.210938 302.578125 186.210938 301.683594 185.085938 300.652344 C 184.617188 300.183594 184.054688 299.148438 183.914062 298.257812 C 183.300781 295.203125 179.832031 292.246094 174.15625 290.085938 C 171.015625 288.867188 170.875 288.726562 169.375 285.765625 C 168.527344 284.125 165.574219 278.488281 162.808594 273.230469 C 159.242188 266.515625 157.460938 262.617188 156.804688 260.082031 C 155.726562 255.855469 153.191406 250.785156 149.113281 244.636719 C 147.472656 242.242188 146.34375 240.269531 146.53125 240.269531 C 146.765625 240.269531 147.1875 240.597656 147.566406 241.019531 C 148.597656 242.242188 152.816406 244.164062 154.648438 244.210938 C 156.007812 244.210938 156.757812 243.929688 157.695312 242.992188 L 158.960938 241.722656 L 158.117188 238.484375 C 157.320312 235.433594 157.320312 235.152344 158.164062 232.097656 C 158.867188 229.375 159.195312 228.8125 160.414062 228.296875 C 161.164062 227.964844 163.980469 225.664062 166.605469 223.175781 C 171.203125 218.90625 171.4375 218.714844 172.796875 219.1875 C 174.015625 219.609375 182.644531 228.058594 189.773438 235.761719 C 191.183594 237.261719 193.621094 239.5625 195.261719 240.878906 C 196.902344 242.144531 198.921875 244.210938 199.71875 245.433594 C 202.671875 249.707031 204.96875 252.429688 205.769531 252.476562 C 206.238281 252.476562 207.128906 253.554688 208.019531 255.246094 C 208.816406 256.75 211.160156 260.082031 213.273438 262.617188 C 217.585938 267.972656 219.882812 271.257812 222.089844 275.25 C 222.933594 276.800781 224.480469 279.101562 225.558594 280.414062 C 226.636719 281.683594 227.765625 283.324219 228.046875 284.03125 C 228.375 284.734375 229.734375 286 231.09375 286.941406 C 235.316406 289.710938 237.800781 292.339844 238.878906 295.347656 C 240.519531 299.710938 242.070312 302.53125 247.132812 310.230469 C 249.808594 314.222656 253.652344 320.136719 255.761719 323.332031 C 259.84375 329.527344 260.78125 331.828125 261.484375 337.371094 C 261.953125 341.078125 263.40625 344.929688 264.816406 346.199219 C 265.285156 346.621094 265.847656 347.746094 265.988281 348.6875 C 266.175781 349.625 267.160156 351.972656 268.191406 353.898438 C 272.132812 361.222656 273.679688 364.507812 274.007812 366.292969 C 274.570312 369.816406 274.757812 369.863281 285.78125 369.863281 C 291.125 369.863281 296.285156 369.722656 297.269531 369.582031 C 298.910156 369.300781 299.003906 369.15625 299.003906 367.5625 C 299.003906 365.402344 297.691406 362.679688 293.238281 355.210938 C 291.21875 351.972656 289.625 349.15625 289.625 348.96875 C 289.625 348.828125 290.046875 348.921875 290.515625 349.203125 C 291.03125 349.4375 291.78125 349.53125 292.203125 349.390625 C 293.238281 348.96875 292.296875 347.980469 290.5625 347.605469 C 289.578125 347.417969 288.828125 346.808594 288.171875 345.679688 C 287.609375 344.789062 287 344.039062 286.765625 344.039062 C 285.78125 344.039062 281.558594 339.53125 280.667969 337.511719 C 280.152344 336.382812 279.214844 334.695312 278.558594 333.800781 C 276.398438 330.984375 274.148438 324.691406 274.148438 321.453125 C 274.148438 318.023438 271.851562 309.480469 268.519531 300.558594 C 265.144531 291.589844 263.644531 288.445312 260.265625 283.371094 C 258.625 280.882812 256.890625 277.925781 256.375 276.800781 C 255.855469 275.578125 254.496094 273.886719 252.902344 272.527344 C 251.449219 271.304688 250.136719 269.898438 249.996094 269.378906 C 249.855469 268.910156 249.292969 268.347656 248.820312 268.207031 C 247.226562 267.691406 240.050781 254.589844 238.691406 249.753906 C 237.800781 246.511719 238.035156 245.433594 239.628906 245.433594 C 242.445312 245.433594 252.105469 241.628906 252.105469 240.503906 C 252.105469 239.1875 249.339844 233.179688 247.742188 231.019531 C 246.851562 229.75 244.835938 226.089844 243.289062 222.847656 C 241.789062 219.609375 239.253906 215.101562 237.707031 212.753906 C 236.160156 210.453125 234.328125 207.496094 233.625 206.132812 C 231.984375 203.175781 230.578125 201.71875 227.296875 199.980469 L 224.761719 198.574219 L 224.714844 195.285156 C 224.667969 192.46875 224.480469 191.765625 223.542969 190.777344 C 221.855469 188.996094 219.695312 188.429688 217.773438 189.230469 L 216.179688 189.886719 L 215.570312 186.316406 C 215.242188 184.347656 214.914062 181.667969 214.867188 180.402344 C 214.539062 173.6875 210.222656 158.707031 206.519531 151.335938 C 206.003906 150.304688 204.78125 147.25 203.796875 144.527344 C 202.8125 141.804688 201.59375 138.378906 201.078125 136.96875 C 199.015625 131.242188 197.277344 124.808594 197.042969 121.707031 C 196.855469 119.878906 196.199219 116.214844 195.589844 113.492188 C 194.324219 108.28125 192.589844 99.265625 192.542969 97.855469 C 192.542969 97.105469 192.636719 97.105469 194.324219 97.949219 C 196.761719 99.21875 203.046875 101.144531 205.910156 101.519531 C 207.222656 101.707031 209.707031 102.363281 211.488281 102.972656 C 217.351562 104.992188 223.074219 104.242188 223.824219 101.332031 C 224.246094 99.59375 223.589844 93.441406 222.792969 91.894531 C 221.714844 89.78125 217.585938 84.425781 216.226562 83.347656 C 215.570312 82.832031 214.539062 81.421875 213.929688 80.199219 C 212.378906 77.242188 208.394531 73.488281 202.4375 69.589844 C 200.609375 68.367188 199.109375 67.054688 199.109375 66.679688 C 199.109375 65.785156 193.527344 59.964844 190.101562 57.289062 C 188.601562 56.160156 187.382812 54.988281 187.382812 54.703125 C 187.382812 53.953125 183.207031 49.539062 181.613281 48.601562 C 180.910156 48.179688 178.988281 47.707031 177.394531 47.519531 C 175.796875 47.332031 173.453125 46.722656 172.140625 46.160156 C 170.125 45.265625 169.089844 45.125 165.105469 45.265625 C 162.527344 45.359375 159.804688 45.597656 159.007812 45.832031 C 158.023438 46.113281 157.179688 46.019531 156.242188 45.550781 C 155.539062 45.171875 154.554688 44.9375 154.082031 45.078125 C 151.550781 45.738281 148.878906 38.128906 150.332031 34.375 C 151.363281 31.699219 151.738281 26.8125 151.363281 21.929688 C 150.988281 17.609375 150.707031 16.484375 149.066406 13.007812 C 146.90625 8.359375 144.984375 6.011719 141.703125 3.898438 C 137.339844 1.128906 134.527344 0.191406 129.929688 0.00390625 C 126.320312 -0.136719 125.238281 0.00390625 122.425781 1.035156 Z M 122.425781 1.035156 "/>
</g>
<path style=" stroke:none;fill-rule:nonzero;fill:rgb(0%,0%,0%);fill-opacity:1;" d="M 98.976562 321.03125 C 88.703125 322.859375 80.964844 329.761719 77.355469 340.28125 C 76.042969 344.039062 76.183594 351.644531 77.589844 355.777344 C 80.589844 364.507812 86.59375 370.425781 95.457031 373.429688 C 99.398438 374.792969 106.855469 374.652344 111.3125 373.195312 C 120.738281 370.097656 127.257812 362.632812 129.320312 352.582031 C 130.585938 346.386719 129.929688 341.785156 126.929688 335.585938 C 124.957031 331.40625 120.082031 326.242188 116.1875 324.175781 C 111.3125 321.546875 103.902344 320.183594 98.976562 321.03125 Z M 98.976562 321.03125 "/>
</g>
</svg>
