<?xml version="1.0" encoding="UTF-8"?>
<svg xmlns="http://www.w3.org/2000/svg" xmlns:xlink="http://www.w3.org/1999/xlink" width="375pt" height="374.999991pt" viewBox="0 0 375 374.999991" version="1.2">
<defs>
<clipPath id="clip1">
  <path d="M 0 47.726562 L 375 47.726562 L 375 327.476562 L 0 327.476562 Z M 0 47.726562 "/>
</clipPath>
</defs>
<g id="surface1">
<g clip-path="url(#clip1)" clip-rule="nonzero">
<path style=" stroke:none;fill-rule:nonzero;fill:rgb(0%,0%,0%);fill-opacity:1;" d="M 137.871094 47.730469 C 135.902344 47.84375 131.695312 50.613281 131.695312 50.613281 L 128.097656 54.035156 C 128.097656 54.035156 121.761719 58.855469 120.902344 59.199219 C 120.046875 59.542969 115.257812 61.414062 113.890625 61.929688 C 112.519531 62.445312 111.820312 64.183594 111.820312 64.183594 C 111.820312 64.183594 110.960938 65.199219 112.332031 65.714844 C 113.699219 66.226562 113.699219 67.773438 114.730469 68.113281 C 115.757812 68.457031 116.46875 71.539062 116.46875 71.539062 C 116.46875 71.539062 117.667969 81.488281 117.667969 83.546875 C 117.667969 85.605469 119.375 84.597656 119.375 84.597656 L 120.902344 86.128906 C 120.902344 86.128906 120.734375 90.066406 120.902344 90.75 C 121.074219 91.4375 120.214844 95.554688 120.214844 95.554688 L 122.613281 96.425781 L 123.8125 99.007812 L 123.992188 101.558594 L 127.257812 103.628906 L 127.589844 106.03125 L 129.988281 107.921875 L 131.007812 110.476562 L 133.074219 113.566406 L 136.851562 113.238281 L 143.6875 110.476562 L 143.355469 114.617188 L 140.597656 118.371094 C 140.597656 118.371094 138.203125 122.828125 136.492188 127.285156 C 134.777344 131.746094 139.582031 135.886719 140.269531 137.945312 C 140.953125 140.003906 149.171875 153.707031 149.171875 153.707031 C 149.171875 153.707031 150.535156 160.910156 150.191406 163.3125 C 149.847656 165.714844 153.96875 180.125 153.96875 180.125 L 152.949219 185.980469 L 148.152344 194.203125 L 145.066406 208.945312 L 133.40625 230.921875 L 128.609375 232.964844 L 121.414062 235.035156 L 116.289062 245.660156 L 114.21875 249.445312 L 117.996094 251.15625 L 89.21875 265.234375 L 23.09375 300.902344 C 23.09375 300.902344 16.253906 304.34375 13.171875 305.375 C 10.089844 306.402344 11.445312 303.324219 11.101562 301.953125 C 10.761719 300.578125 12.152344 298.863281 12.152344 297.148438 C 12.152344 295.433594 9.394531 293.367188 9.394531 293.367188 C 9.394531 293.367188 6.320312 293.691406 3.578125 295.40625 C 0.839844 297.121094 1.523438 299.546875 1.179688 301.261719 L 0.160156 306.753906 C 0.160156 306.753906 2.894531 312.753906 3.578125 313.269531 C 4.265625 313.785156 13.5 316.691406 13.5 316.691406 L 31.996094 308.464844 L 67.96875 289.253906 L 98.125 270.730469 L 114.730469 261.632812 L 119.375 260.433594 C 119.375 260.433594 122.269531 262.667969 122.613281 263.523438 C 122.957031 264.382812 126.570312 259.5625 126.570312 259.5625 L 132.054688 258.179688 L 139.582031 254.578125 L 144.886719 246.351562 L 162.542969 236.746094 L 168.6875 239.65625 L 169.226562 237.105469 L 168.6875 233.652344 L 172.464844 235.90625 L 174.53125 234.015625 L 179.328125 232.964844 C 179.328125 232.964844 184.277344 230.402344 184.964844 230.230469 C 185.648438 230.058594 188.921875 221.644531 188.921875 221.644531 L 189.070312 214.949219 L 190.808594 214.289062 L 192.007812 210.507812 L 200.222656 202.101562 L 205.707031 196.9375 L 213.589844 185.980469 L 220.785156 174.480469 L 225.222656 175.863281 L 227.980469 178.59375 L 222.644531 185.46875 L 215.628906 193.003906 L 209.632812 202.101562 L 205.527344 210.328125 L 206.546875 217.710938 L 213.050781 228.339844 L 220.097656 239.148438 L 219.914062 243.949219 L 226.242188 257.339844 L 237.722656 283.9375 L 240.808594 290.785156 L 240.988281 296.789062 L 238.410156 301.410156 C 238.410156 301.410156 235.675781 306.046875 235.503906 306.90625 C 235.332031 307.761719 232.578125 310.851562 232.234375 311.707031 C 231.894531 312.566406 226.421875 316.1875 225.222656 316.871094 C 224.023438 317.558594 223.675781 319.765625 223.332031 320.625 C 222.992188 321.484375 227.113281 324.941406 227.800781 324.769531 C 228.484375 324.597656 235.503906 326.480469 235.503906 326.480469 L 246.476562 327.679688 C 246.476562 327.679688 255.53125 325.613281 255.019531 323.898438 C 254.503906 322.183594 258.464844 320.625 258.464844 320.625 L 264.96875 321.496094 L 271.296875 317.203125 C 271.296875 317.203125 270.433594 309.84375 270.605469 309.15625 C 270.777344 308.472656 268.207031 301.082031 268.207031 301.082031 C 268.207031 301.082031 265.640625 296.113281 265.300781 295.257812 C 264.957031 294.398438 260.175781 280.847656 260.175781 280.847656 L 257.265625 268.148438 L 255.886719 257.851562 C 255.886719 257.851562 253.503906 245.65625 253.160156 244.972656 C 252.816406 244.285156 248.351562 231.941406 247.492188 230.742188 C 246.636719 229.539062 242.34375 226.292969 241.828125 225.605469 C 241.316406 224.921875 239.453125 221.484375 239.28125 220.113281 C 239.109375 218.742188 240.121094 214.800781 240.121094 214.800781 L 246.804688 210.835938 L 246.804688 213.597656 L 252.800781 220.625 C 252.800781 220.625 271.144531 238.28125 271.144531 238.96875 C 271.144531 239.652344 274.5625 244.128906 274.5625 244.128906 L 279.539062 247.554688 L 287.933594 248.753906 C 287.933594 248.753906 288.085938 249.957031 287.574219 251.15625 C 287.058594 252.355469 291.53125 254.578125 291.53125 254.578125 L 302.46875 259.050781 C 302.46875 259.050781 327.332031 277.066406 327.5 277.753906 C 327.671875 278.441406 332.628906 282.039062 333.316406 281.867188 C 334 281.695312 336.917969 284.429688 337.601562 284.601562 C 338.289062 284.769531 337.078125 287.527344 336.222656 289.074219 C 335.367188 290.617188 337.410156 292.003906 337.753906 293.546875 C 338.09375 295.089844 341.179688 297.660156 341.347656 298.859375 C 341.519531 300.0625 343.25 303.132812 344.105469 304.503906 C 344.964844 305.875 345.988281 310.171875 345.816406 311.890625 C 345.644531 313.605469 342.742188 317.03125 341.199219 318.402344 C 339.65625 319.777344 339.832031 323.035156 339.492188 324.40625 C 339.148438 325.78125 341.691406 325.78125 342.546875 325.609375 C 343.40625 325.4375 352.679688 323.898438 352.679688 323.898438 L 361.734375 318.074219 L 365.871094 311.558594 L 365.871094 303.664062 C 365.871094 303.664062 365.691406 293.363281 365.691406 291.472656 C 365.691406 289.585938 368.429688 288.71875 370.488281 287 C 372.542969 285.285156 372.375 284.449219 372.375 284.449219 C 372.375 284.449219 374.070312 277.574219 374.414062 276.375 C 374.757812 275.171875 374.773438 271.585938 374.773438 269.527344 C 374.773438 267.46875 372.203125 266.785156 371.175781 265.925781 C 370.148438 265.070312 365.34375 265.738281 363.800781 265.566406 C 362.261719 265.394531 356.277344 265.566406 356.277344 265.566406 L 348.722656 263.675781 L 341.890625 256.648438 L 329.898438 247.914062 L 325.433594 240.019531 C 325.433594 240.019531 314.820312 229.878906 313.621094 228.851562 C 312.421875 227.820312 308.484375 225.761719 306.425781 225.246094 C 304.371094 224.734375 299.730469 223.71875 298.875 223.207031 C 298.015625 222.691406 294.957031 215.816406 295.125 215.128906 C 295.296875 214.445312 290.988281 203.300781 290.988281 203.300781 L 288.261719 190.933594 L 282.777344 180.996094 L 283.976562 179.105469 C 283.976562 179.105469 287.238281 174.46875 287.753906 173.609375 C 288.265625 172.753906 290.152344 167.613281 290.152344 165.382812 C 290.152344 163.15625 290.671875 158.6875 290.332031 156.796875 C 289.988281 154.910156 290.324219 146.351562 290.152344 145.148438 C 289.980469 143.949219 288.097656 138.449219 287.242188 136.5625 C 286.386719 134.675781 278.660156 127.472656 277.289062 125.757812 C 275.921875 124.039062 268.40625 118.882812 266.347656 117.679688 C 264.292969 116.480469 250.070312 107.566406 249.382812 107.050781 C 248.699219 106.539062 222.824219 91.621094 222.824219 91.621094 C 222.824219 91.621094 206.898438 82.367188 204.328125 82.195312 C 201.757812 82.023438 185.324219 79.941406 185.324219 79.941406 L 177.261719 82.015625 C 177.261719 82.015625 169.542969 81.484375 168.6875 80.453125 C 167.832031 79.425781 167.835938 77.558594 168.179688 76.699219 C 168.519531 75.84375 165.792969 71.382812 165.449219 70.695312 C 165.109375 70.011719 165.960938 67.246094 165.960938 67.246094 L 163.5625 62.800781 C 163.5625 62.800781 160.136719 58.164062 159.964844 57.308594 C 159.792969 56.449219 160.148438 53.175781 160.835938 52.832031 C 161.519531 52.492188 158.765625 50.972656 158.765625 50.972656 L 151.390625 50.433594 L 145.394531 49.589844 C 145.394531 49.589844 139.933594 48.738281 138.5625 47.878906 C 138.390625 47.773438 138.152344 47.714844 137.871094 47.730469 Z M 170.753906 148.390625 L 175.730469 149.261719 L 182.414062 151.304688 L 189.609375 156.976562 L 200.730469 157.667969 L 200.910156 160.25 L 198.664062 166.074219 L 186.523438 191.984375 L 184.125 193.515625 L 177.769531 205.523438 L 171.953125 211.527344 C 171.953125 211.527344 162.882812 221.65625 162.542969 222.515625 C 162.199219 223.371094 162.542969 228.007812 162.542969 228.007812 L 148.992188 235.035156 L 159.273438 221.3125 L 165.628906 213.597656 L 169.886719 202.941406 C 169.886719 202.941406 173.488281 193.347656 174.171875 193.003906 C 174.855469 192.660156 175.042969 181.695312 175.042969 180.664062 C 175.042969 179.636719 174.171875 165.714844 174.171875 165.714844 Z M 170.753906 148.390625 "/>
</g>
</g>
</svg>
