<?xml version="1.0" encoding="UTF-8"?>
<svg xmlns="http://www.w3.org/2000/svg" xmlns:xlink="http://www.w3.org/1999/xlink" width="375pt" height="374.999991pt" viewBox="0 0 375 374.999991" version="1.2">
<defs>
<clipPath id="clip1">
  <path d="M 54.339844 0 L 321.140625 0 L 321.140625 374.992188 L 54.339844 374.992188 Z M 54.339844 0 "/>
</clipPath>
</defs>
<g id="surface1">
<g clip-path="url(#clip1)" clip-rule="nonzero">
<path style=" stroke:none;fill-rule:nonzero;fill:rgb(0%,0%,0%);fill-opacity:1;" d="M 318.601562 217.003906 C 315.933594 213.714844 314.878906 213.222656 313.199219 211.261719 C 311.515625 209.304688 309.269531 207.203125 305.691406 205.246094 C 302.113281 203.285156 301.480469 202.863281 295.519531 198.734375 C 289.558594 194.605469 275.671875 188.023438 266.96875 185.714844 C 266.96875 185.714844 266.898438 185.644531 266.058594 185.082031 C 265.21875 184.523438 265.707031 184.246094 264.09375 184.246094 C 262.480469 184.246094 261.21875 184.453125 259.183594 184.171875 C 257.148438 183.894531 256.585938 183.332031 254.550781 182.84375 C 252.519531 182.351562 252.449219 181.582031 251.253906 181.722656 C 250.0625 181.863281 250.0625 183.753906 248.097656 182.5625 C 246.132812 181.371094 246.484375 179.695312 247.46875 179.902344 C 248.449219 180.113281 249.433594 180.460938 248.871094 178.503906 C 248.308594 176.542969 248.097656 175.351562 246.976562 173.535156 C 245.855469 171.710938 244.59375 168.632812 244.03125 164.363281 C 243.472656 160.09375 243.75 155.125 244.03125 152.464844 C 244.3125 149.800781 245.011719 148.402344 245.085938 146.933594 C 245.152344 145.460938 244.519531 144.761719 244.382812 143.011719 C 244.242188 141.261719 243.960938 139.652344 244.453125 137.832031 C 244.941406 136.011719 245.292969 135.59375 244.941406 133.910156 C 244.59375 132.230469 244.101562 132.164062 244.519531 130.132812 C 244.941406 128.101562 245.292969 128.03125 245.085938 126.28125 C 244.871094 124.53125 244.59375 124.183594 244.519531 122.570312 C 244.453125 120.960938 244.242188 122.152344 244.171875 120.121094 C 244.101562 118.09375 244.382812 117.320312 244.382812 115.082031 C 244.382812 112.839844 243.960938 110.390625 243.960938 108.78125 C 243.960938 107.171875 244.59375 105.84375 244.59375 104.375 C 244.59375 102.902344 244.800781 100.660156 244.800781 100.660156 C 244.800781 100.660156 248.097656 104.160156 249.503906 105.984375 C 250.902344 107.800781 253.570312 111.300781 256.308594 111.441406 C 259.042969 111.582031 260.304688 111.933594 261.5 112.074219 C 262.691406 112.210938 265.917969 112.140625 266.898438 110.113281 C 267.882812 108.082031 267.808594 107.941406 269.496094 105.914062 C 271.179688 103.882812 274.683594 97.933594 276.300781 92.542969 C 277.914062 87.152344 278.753906 82.742188 278.753906 80.570312 C 278.753906 78.402344 278.542969 76.476562 280.472656 75.460938 C 282.402344 74.445312 284.15625 72.941406 285.316406 71.714844 C 286.472656 70.492188 287.664062 68.707031 288.648438 68.179688 C 289.628906 67.65625 290.890625 67.167969 292.292969 66.957031 C 293.699219 66.746094 296.574219 65.835938 297.414062 65.167969 C 298.257812 64.507812 298.746094 63.699219 298.46875 62.757812 C 298.1875 61.8125 297.449219 62.054688 296.746094 62.054688 C 296.046875 62.054688 294.398438 62.722656 293.769531 62.863281 C 293.132812 63 291.976562 62.792969 290.820312 63.105469 C 289.664062 63.421875 288.152344 64.085938 287.90625 64.050781 C 287.664062 64.015625 286.578125 64.191406 286.507812 63.421875 C 286.4375 62.652344 286.292969 62.792969 287.066406 62.054688 C 287.839844 61.320312 288.855469 59.5 289.664062 58.3125 C 290.46875 57.121094 291.769531 55.234375 291.453125 54.039062 C 291.136719 52.851562 290.398438 52.710938 289.523438 52.816406 C 288.648438 52.921875 287.804688 53.898438 287.3125 54.671875 C 286.824219 55.441406 286.050781 56.632812 285.277344 57.332031 C 284.507812 58.03125 283.558594 58.730469 283.558594 58.730469 C 283.558594 58.730469 283.945312 57.820312 284.296875 57.191406 C 284.644531 56.558594 285.417969 55.617188 285.769531 54.84375 C 286.121094 54.078125 287.242188 52.78125 287.769531 52.152344 C 288.292969 51.519531 289.417969 50.679688 289.207031 49.316406 C 288.996094 47.953125 287.875 48.089844 287.171875 48.125 C 286.472656 48.160156 285.136719 48.964844 284.789062 49.316406 C 284.4375 49.667969 283.316406 50.679688 282.753906 51.449219 C 282.191406 52.222656 281.703125 52.117188 281.703125 52.117188 C 281.703125 52.117188 282.121094 50.542969 283.351562 49.421875 C 284.578125 48.300781 286.472656 46.9375 286.261719 45.605469 C 286.050781 44.273438 285.101562 43.996094 284.191406 44.242188 C 283.28125 44.488281 280.894531 45.957031 279.667969 46.902344 C 278.441406 47.84375 277.320312 49.210938 276.753906 50.085938 C 276.195312 50.960938 274.792969 52.394531 274.160156 52.957031 C 273.527344 53.515625 271.492188 55.371094 270.375 55.757812 C 269.25 56.140625 267.214844 57.785156 266.621094 57.15625 C 266.023438 56.523438 265.285156 55.863281 265.285156 54.777344 C 265.285156 53.691406 265.496094 52.5 264.796875 51.414062 C 264.09375 50.328125 263.253906 49.597656 262.445312 49.699219 C 261.640625 49.804688 260.902344 50.367188 260.972656 51.558594 C 261.042969 52.746094 260.972656 53.238281 260.621094 53.691406 C 260.269531 54.148438 259.8125 54.636719 260.0625 55.894531 C 260.304688 57.15625 261.289062 58.730469 261.289062 59.5 C 261.289062 60.273438 261.148438 60.65625 261.671875 62.195312 C 262.199219 63.734375 262.902344 65.238281 263.496094 66.816406 C 264.09375 68.390625 264.550781 69.476562 265.003906 69.789062 C 265.460938 70.105469 266.410156 70.632812 265.671875 71.613281 C 264.9375 72.59375 262.550781 78.71875 261.464844 80.222656 C 260.378906 81.726562 259.289062 83.582031 258.550781 83.089844 C 257.816406 82.601562 256.449219 81.761719 256.480469 80.746094 C 256.515625 79.734375 257.992188 79.347656 256.765625 78.226562 C 255.535156 77.105469 255.78125 77.421875 253.675781 75.707031 C 251.574219 73.992188 251.117188 73.082031 249.644531 71.472656 C 248.167969 69.859375 245.292969 69.058594 245.257812 67.621094 C 245.222656 66.183594 244.171875 61.320312 242.136719 59.1875 C 240.101562 57.050781 236.488281 53.691406 236.488281 53.691406 C 236.488281 53.691406 238.03125 51.660156 240.066406 51.800781 C 242.101562 51.941406 244.59375 53.167969 246.132812 50.820312 C 247.679688 48.476562 245.292969 45.992188 245.574219 45.289062 C 245.855469 44.589844 246.730469 43.785156 246.414062 43.015625 C 246.097656 42.246094 245.050781 41.964844 246.097656 41.195312 C 247.152344 40.425781 248.167969 40.285156 247.925781 39.480469 C 247.679688 38.675781 247.46875 38.359375 247.679688 37.484375 C 247.890625 36.609375 248.242188 35.734375 249.152344 35.488281 C 250.0625 35.246094 253.429688 35.070312 253.535156 33.214844 C 253.644531 31.359375 252.167969 29.644531 251.082031 27.648438 C 249.996094 25.65625 248.625 24.640625 248.308594 23.976562 C 247.996094 23.308594 248.277344 23.03125 248.800781 22.332031 C 249.324219 21.628906 249.746094 21.035156 249.433594 19.949219 C 249.117188 18.867188 248.449219 16.589844 247.75 15.609375 C 247.046875 14.628906 246.554688 13.582031 245.996094 12.601562 C 245.433594 11.621094 244.03125 8.855469 242.699219 7.875 C 241.367188 6.894531 244.941406 5.914062 242.066406 3.777344 C 239.191406 1.644531 233.054688 -0.839844 221.515625 0.28125 C 221.515625 0.28125 213.972656 1.644531 210.042969 4.199219 C 206.117188 6.753906 203.660156 9.625 202.257812 15.015625 C 200.855469 20.40625 200.292969 24.886719 201.835938 29.226562 C 203.382812 33.566406 204.574219 34.824219 205.097656 37.695312 C 205.625 40.566406 205.625 41.265625 205.695312 41.964844 C 205.765625 42.664062 205.695312 43.714844 205.695312 43.714844 C 205.695312 43.714844 205.519531 45.152344 204.78125 47.007812 C 204.046875 48.859375 203.871094 49.386719 202.714844 49.699219 C 201.554688 50.015625 199.519531 50.542969 197.90625 51.835938 C 196.292969 53.132812 196.367188 53.269531 194.929688 53.691406 C 193.488281 54.113281 191.066406 54.183594 190.261719 56.035156 C 189.453125 57.890625 188.542969 60.480469 187.914062 61.144531 C 187.28125 61.8125 185.667969 62.792969 184.054688 63.28125 C 182.441406 63.769531 179.421875 64.332031 177.179688 66.148438 C 174.933594 67.972656 173.8125 71.402344 172.058594 72.941406 C 170.304688 74.480469 168.058594 75.601562 165.886719 76.722656 C 163.710938 77.84375 161.394531 78.472656 158.660156 80.78125 C 155.925781 83.089844 154.101562 83.160156 154.027344 84.140625 C 153.960938 85.121094 154.449219 85.542969 154.449219 85.542969 C 154.449219 85.542969 148.253906 91.515625 144.234375 95.902344 C 140.210938 100.289062 138.714844 102.25 136.796875 103.835938 C 134.878906 105.421875 132.867188 108.503906 133.898438 110.507812 C 134.925781 112.515625 135.582031 113.542969 135.910156 116.574219 C 136.238281 119.609375 139.976562 135.148438 142.96875 142.382812 C 145.964844 149.617188 154.707031 163.988281 155.410156 165.296875 C 156.113281 166.601562 157.511719 168.097656 157.5625 169.777344 C 157.609375 171.457031 158.078125 174.722656 158.589844 176.308594 C 159.105469 177.898438 161.347656 182.234375 162.472656 183.496094 C 163.59375 184.753906 164.574219 186.855469 164.714844 187.835938 C 164.859375 188.816406 164.9375 190.019531 164.9375 191.695312 C 164.9375 193.378906 164.867188 195.792969 165.359375 197.402344 C 165.851562 199.011719 165.78125 201.148438 166.867188 201.359375 C 167.957031 201.570312 169.429688 202.023438 169.429688 199.539062 C 169.429688 197.054688 169.253906 193.832031 169.253906 192.675781 C 169.253906 191.523438 169.078125 189.667969 169.113281 188.410156 C 169.148438 187.148438 169.253906 185.257812 169.8125 185.992188 C 170.375 186.730469 171.988281 189.914062 172.691406 191.628906 C 173.390625 193.34375 174.933594 196.492188 175.8125 198.3125 C 176.6875 200.136719 177.25 201.546875 177.25 201.546875 C 177.25 201.546875 170.304688 211.894531 168.339844 216.09375 C 166.378906 220.292969 163.152344 227.226562 161.324219 234.085938 C 159.503906 240.941406 158.871094 245.285156 157.1875 247.316406 C 155.503906 249.34375 153.960938 251.722656 150.800781 252.632812 C 147.644531 253.542969 145.121094 255.222656 143.085938 256.695312 C 141.050781 258.164062 142.105469 258.09375 136.84375 259.351562 C 131.582031 260.613281 124.285156 263.34375 116.640625 270.835938 C 108.996094 278.324219 107.242188 282.105469 103.171875 286.796875 C 99.105469 291.484375 92.722656 302.332031 90.964844 304.433594 C 89.214844 306.535156 88.441406 306.535156 88.230469 307.375 C 88.019531 308.214844 87.738281 309.195312 86.828125 309.476562 C 85.917969 309.757812 85.566406 309.265625 85.144531 310.105469 C 84.722656 310.945312 84.089844 311.996094 83.601562 312.484375 C 83.109375 312.976562 82.757812 312.765625 80.445312 313.046875 C 78.128906 313.328125 75.605469 313.605469 72.515625 313.394531 C 69.429688 313.183594 63.890625 312.765625 62.628906 313.816406 C 61.363281 314.867188 60.101562 316.546875 59.121094 321.234375 C 58.136719 325.925781 57.296875 328.585938 57.714844 330.125 C 58.136719 331.664062 59.820312 334.257812 58.347656 335.65625 C 56.875 337.054688 55.609375 339.296875 54.769531 341.605469 C 53.925781 343.914062 54.070312 359.734375 57.574219 365.964844 C 61.082031 372.199219 65.714844 377.796875 69.148438 373.457031 C 72.589844 369.117188 70.554688 364.285156 73.429688 359.734375 C 76.304688 355.183594 77.566406 354.207031 77.988281 353.367188 C 78.410156 352.527344 79.464844 351.40625 79.464844 351.40625 C 79.464844 351.40625 80.304688 351.757812 81.074219 350.496094 C 81.847656 349.238281 82.199219 348.324219 82.199219 348.324219 C 82.199219 348.324219 82.199219 351.964844 82.199219 353.789062 C 82.199219 355.605469 82.96875 354.136719 82.96875 351.542969 C 82.96875 348.957031 83.320312 346.785156 83.460938 346.578125 C 83.601562 346.363281 84.441406 345.734375 84.65625 345.945312 C 84.863281 346.15625 84.441406 350.285156 84.792969 351.964844 C 85.144531 353.644531 86.125 356.027344 86.96875 353.015625 C 87.808594 350.003906 88.160156 346.855469 87.949219 344.757812 C 87.835938 343.605469 86.921875 343.421875 86.660156 343.398438 C 86.816406 343.398438 87.253906 343.371094 88.160156 343.214844 C 91.457031 342.65625 95.734375 342.097656 96.019531 340.136719 C 96.300781 338.175781 94.542969 337.753906 93.632812 337.898438 C 92.722656 338.035156 91.246094 336.566406 91.109375 336.144531 C 90.964844 335.726562 91.386719 335.304688 91.386719 335.304688 C 91.386719 335.304688 92.507812 333.542969 94.472656 330.882812 C 94.472656 330.882812 95.246094 328.863281 96.085938 328.445312 C 96.929688 328.023438 97.28125 328.238281 97.914062 327.046875 C 98.542969 325.855469 97.769531 325.785156 99.035156 325.085938 C 100.296875 324.382812 99.945312 325.15625 100.71875 323.753906 C 101.488281 322.355469 101.558594 321.445312 101.839844 320.816406 C 102.121094 320.1875 103.171875 318.4375 104.574219 316.683594 C 105.980469 314.933594 115.867188 307.023438 120.21875 304.226562 C 124.566406 301.425781 133.125 295.683594 137.824219 292.253906 C 142.527344 288.824219 147.574219 284.066406 154.449219 281.054688 C 161.324219 278.046875 168.273438 274.265625 170.023438 273.917969 C 171.777344 273.566406 174.023438 271.816406 175.425781 269.855469 C 176.828125 267.894531 178.582031 266.285156 179.074219 265.65625 C 179.566406 265.023438 191.488281 249.902344 196.257812 243.882812 C 201.03125 237.863281 211.765625 224.492188 211.972656 223.65625 C 211.972656 223.65625 213.585938 224.144531 214.847656 223.164062 C 216.113281 222.183594 216.183594 221.414062 217.796875 221.902344 C 219.410156 222.394531 221.375 224.707031 221.933594 224.984375 C 222.496094 225.265625 221.933594 225.265625 223.195312 225.265625 C 224.460938 225.265625 228.035156 226.101562 228.457031 226.101562 C 228.878906 226.101562 229.371094 225.824219 230 225.894531 C 230.632812 225.964844 242.347656 229.253906 249.996094 229.535156 C 257.640625 229.816406 269.214844 228.90625 274.40625 229.535156 C 279.597656 230.164062 282.824219 230.234375 280.507812 231.914062 C 278.195312 233.59375 272.445312 239.546875 270.195312 243.394531 C 267.953125 247.246094 267.179688 250.886719 266.6875 255.015625 C 266.195312 259.144531 264.9375 262.15625 262.410156 268.316406 C 259.886719 274.476562 255.464844 284.207031 255.464844 284.207031 C 255.464844 284.207031 254.550781 283.996094 254.34375 284.835938 C 254.132812 285.675781 253.710938 287.5625 253.292969 288.125 C 252.867188 288.6875 252.378906 288.265625 252.167969 289.386719 C 251.957031 290.503906 252.589844 290.296875 251.816406 290.855469 C 251.046875 291.414062 250.765625 291.203125 250.695312 292.324219 C 250.625 293.445312 250.625 293.9375 250.277344 294.425781 C 249.925781 294.914062 248.941406 294.144531 248.941406 295.335938 C 248.941406 296.527344 249.855469 296.945312 248.378906 298.488281 C 246.90625 300.027344 247.398438 300.65625 246.347656 301.566406 C 245.292969 302.476562 245.503906 303.035156 245.503906 303.035156 C 245.503906 303.035156 244.382812 301.984375 243.398438 303.246094 C 242.417969 304.503906 242.066406 304.367188 241.714844 305.34375 C 241.367188 306.324219 241.714844 306.953125 240.03125 308.074219 C 238.351562 309.195312 235.753906 312.625 235.402344 313.464844 C 235.050781 314.304688 234.769531 314.585938 233.929688 315.074219 C 233.089844 315.566406 231.054688 316.683594 230.28125 317.527344 C 229.511719 318.367188 228.457031 319.90625 230.84375 322.214844 C 233.226562 324.527344 240.3125 328.796875 242.769531 330.265625 C 245.222656 331.738281 248.449219 334.257812 249.222656 334.328125 C 249.996094 334.394531 251.253906 333.765625 252.867188 335.378906 C 254.484375 336.988281 257.007812 337.96875 261.992188 341.117188 C 266.96875 344.265625 285.839844 350.003906 288.363281 350.003906 C 290.890625 350.003906 292.996094 346.648438 292.011719 344.824219 C 291.03125 343.007812 288.507812 340.277344 285.910156 338.527344 C 283.316406 336.777344 279.945312 334.46875 279.386719 333.695312 C 278.828125 332.925781 278.261719 332.367188 277.492188 331.175781 C 276.71875 329.984375 275.671875 327.746094 275.179688 327.324219 C 274.683594 326.90625 272.933594 322.84375 272.933594 322.425781 C 272.933594 322.007812 273.421875 323.335938 274.546875 324.875 C 275.671875 326.414062 276.089844 327.816406 277.070312 329.003906 C 278.054688 330.195312 278.542969 332.015625 278.964844 332.296875 C 279.386719 332.574219 279.804688 331.945312 279.316406 330.757812 C 278.828125 329.566406 278.054688 328.585938 277.285156 327.1875 C 276.511719 325.785156 275.457031 323.546875 274.683594 322.425781 C 273.914062 321.304688 273.070312 320.046875 273.214844 319.695312 C 273.355469 319.34375 273.636719 318.925781 274.125 319.625 C 274.617188 320.324219 275.738281 321.863281 276.648438 323.195312 C 277.5625 324.527344 277.984375 325.363281 278.828125 326.765625 C 279.667969 328.167969 279.527344 329.355469 280.367188 329.285156 C 281.210938 329.21875 281 328.238281 280.15625 326.695312 C 279.316406 325.15625 279.386719 324.875 278.542969 323.058594 C 277.703125 321.234375 275.386719 317.945312 275.035156 317.386719 C 274.683594 316.824219 274.195312 316.476562 274.195312 315.496094 C 274.195312 314.515625 274.195312 314.796875 274.195312 312.554688 C 274.195312 310.316406 274.828125 307.585938 273.707031 306.117188 C 272.582031 304.644531 271.25 303.667969 270.476562 304.15625 C 269.707031 304.644531 268.652344 304.367188 269.496094 303.667969 C 270.335938 302.964844 270.96875 302.332031 270.6875 301.425781 C 270.40625 300.515625 270.125 300.304688 270.96875 299.535156 C 271.808594 298.761719 270.898438 299.183594 271.949219 297.996094 C 273.003906 296.804688 273.144531 297.367188 273.214844 295.824219 C 273.285156 294.285156 274.476562 292.675781 274.476562 292.675781 C 274.476562 292.675781 280.578125 283.855469 290.121094 272.796875 C 299.660156 261.734375 306.113281 253.335938 311.375 244.796875 C 316.636719 236.253906 321.335938 229.113281 321.195312 222.8125 C 321.195312 222.8125 321.265625 220.292969 318.601562 217.003906 Z M 86.339844 350.355469 C 86.054688 350.914062 86.546875 354.089844 85.773438 351.6875 C 85.007812 349.28125 86.339844 345.035156 86.339844 345.035156 C 86.339844 345.035156 86.757812 345.105469 86.898438 346.296875 C 87.039062 347.484375 86.617188 349.796875 86.339844 350.355469 Z M 177.808594 191.03125 C 177.808594 190.929688 177.003906 188.652344 176.726562 188.058594 C 176.441406 187.464844 176.933594 186.449219 177.566406 187.429688 C 178.195312 188.410156 178.195312 189.027344 178.195312 189.027344 Z M 195.863281 146.394531 C 195.488281 147.5625 195.675781 149.148438 196.003906 149.894531 C 196.328125 150.640625 195.441406 152.042969 195.066406 152.605469 C 194.695312 153.164062 191.792969 155.726562 189.597656 158.296875 C 187.398438 160.863281 185.140625 166.53125 185.140625 166.53125 C 185.140625 166.53125 183.984375 166.507812 183.050781 166.53125 C 182.113281 166.558594 179.074219 165.996094 177.910156 165.949219 C 176.746094 165.90625 173.742188 166.230469 171.730469 164.875 C 169.722656 163.519531 169.0625 158.574219 167.988281 155.636719 C 166.914062 152.699219 164.203125 143.785156 163.125 139.582031 C 162.050781 135.382812 160.835938 124.507812 160.507812 122.175781 C 160.179688 119.84375 159.246094 112.09375 159.339844 111.859375 C 159.433594 111.628906 164.109375 110.230469 167.523438 108.96875 C 170.933594 107.710938 175.613281 104.253906 175.613281 104.253906 C 175.613281 104.253906 177.0625 106.027344 177.765625 106.214844 C 178.464844 106.402344 178.652344 105.796875 179.167969 104.863281 C 179.679688 103.929688 180.710938 103.507812 181.785156 102.527344 C 182.863281 101.550781 183.609375 101.59375 183.609375 101.59375 C 183.609375 101.59375 183.796875 101.921875 184.3125 102.902344 C 184.828125 103.882812 187.351562 108.734375 188.332031 110.789062 C 189.316406 112.839844 189.640625 116.0625 190.019531 118.582031 C 190.390625 121.101562 191.699219 123.15625 192.027344 123.996094 C 192.355469 124.835938 192.773438 128.289062 193.476562 129.316406 C 194.179688 130.34375 193.945312 131.835938 193.570312 133.046875 C 193.195312 134.261719 193.851562 134.355469 194.550781 135.195312 C 195.253906 136.035156 194.972656 137.0625 195.394531 138.226562 C 195.816406 139.398438 195.957031 139.582031 195.910156 140.65625 C 195.863281 141.730469 195.910156 141.777344 196.328125 142.382812 C 196.75 142.988281 196.238281 145.230469 195.863281 146.394531 "/>
</g>
</g>
</svg>
