<?xml version="1.0" encoding="UTF-8"?>
<svg xmlns="http://www.w3.org/2000/svg" xmlns:xlink="http://www.w3.org/1999/xlink" width="375pt" height="374.999991pt" viewBox="0 0 375 374.999991" version="1.2">
<defs>
<clipPath id="clip1">
  <path d="M 82.042969 45 L 292.640625 45 L 292.640625 375 L 82.042969 375 Z M 82.042969 45 "/>
</clipPath>
</defs>
<g id="surface1">
<g clip-path="url(#clip1)" clip-rule="nonzero">
<path style=" stroke:none;fill-rule:nonzero;fill:rgb(0%,0%,0%);fill-opacity:1;" d="M 117.375 84.679688 C 117.421875 84.679688 117.464844 84.765625 117.464844 84.894531 C 117.464844 85.003906 117.355469 85.113281 117.226562 85.113281 C 117.117188 85.113281 117.074219 85.003906 117.140625 84.898438 C 117.203125 84.765625 117.3125 84.679688 117.375 84.679688 Z M 112.492188 112.328125 C 112.921875 112.328125 113.496094 112.457031 114.328125 112.703125 L 115.042969 112.9375 L 114.546875 113.289062 C 114.265625 113.507812 113.898438 113.75 113.703125 113.878906 C 112.148438 114.863281 111.417969 115.410156 111.117188 115.78125 C 110.996094 115.933594 110.921875 116.023438 110.882812 116.023438 C 110.8125 116.023438 110.847656 115.753906 110.9375 115.066406 C 111.019531 114.414062 111.105469 113.722656 111.101562 113.503906 C 111.125 113.308594 111.316406 112.9375 111.574219 112.675781 C 111.808594 112.441406 112.082031 112.324219 112.492188 112.328125 Z M 288.585938 45.554688 C 288.390625 45.554688 288.160156 45.558594 287.894531 45.5625 C 285.921875 45.597656 285.078125 45.90625 282.964844 47.347656 C 282.316406 47.808594 281.433594 48.3125 281.019531 48.488281 C 280.589844 48.664062 280.136719 48.96875 279.964844 49.144531 C 279.8125 49.339844 279.574219 49.492188 279.402344 49.496094 C 279.035156 49.496094 277.671875 50.285156 276.617188 51.136719 C 276.140625 51.507812 275.082031 52.058594 274.238281 52.324219 C 273.417969 52.609375 272.511719 52.960938 272.25 53.136719 C 271.992188 53.3125 271.582031 53.445312 271.363281 53.445312 C 271.125 53.445312 270.585938 53.601562 270.175781 53.777344 C 269.742188 53.953125 268.941406 54.132812 268.402344 54.15625 C 268.3125 54.160156 268.230469 54.160156 268.152344 54.160156 C 267.496094 54.15625 267.226562 54.027344 266.621094 53.449219 C 265.511719 52.414062 265.050781 51.898438 265.027344 51.613281 C 265.027344 51.484375 264.832031 51.203125 264.59375 50.988281 C 264.351562 50.773438 264.15625 50.492188 264.15625 50.359375 C 264.15625 50.230469 263.457031 49.476562 262.609375 48.675781 L 261.0625 47.210938 L 259.71875 47.21875 C 258.246094 47.226562 258.117188 47.292969 257.578125 48.140625 C 256.933594 49.1875 257.273438 51.441406 258.207031 52.214844 C 258.402344 52.367188 258.6875 52.800781 258.84375 53.191406 C 258.996094 53.558594 259.496094 54.25 259.933594 54.703125 C 260.390625 55.175781 260.980469 56.042969 261.242188 56.648438 C 261.527344 57.230469 261.8125 57.878906 261.902344 58.054688 C 261.988281 58.226562 262.1875 58.617188 262.363281 58.917969 C 262.535156 59.222656 262.691406 59.851562 262.695312 60.347656 C 262.699219 61.324219 263.40625 63.578125 263.886719 64.097656 C 264.039062 64.289062 264.34375 64.765625 264.542969 65.15625 C 264.890625 65.824219 264.890625 65.890625 264.503906 66.457031 C 264.269531 66.785156 264.054688 67.152344 264.011719 67.304688 C 263.96875 67.457031 263.300781 68.242188 262.527344 69.09375 C 261.75 69.921875 260.867188 70.882812 260.566406 71.207031 C 260.265625 71.558594 259.445312 72.410156 258.734375 73.085938 C 258.046875 73.761719 257.164062 74.632812 256.777344 75.046875 C 256.410156 75.441406 255.761719 76.03125 255.375 76.335938 C 254.984375 76.664062 254.125 77.40625 253.476562 77.996094 C 252.832031 78.585938 251.859375 79.351562 251.320312 79.699219 C 250.78125 80.050781 249.140625 81.230469 247.652344 82.324219 C 246.164062 83.394531 244.414062 84.640625 243.769531 85.078125 C 243.121094 85.515625 242.386719 86.085938 242.128906 86.324219 C 241.890625 86.566406 241.351562 86.9375 240.941406 87.132812 C 240.207031 87.507812 239.796875 87.878906 238.375 89.363281 C 237.964844 89.796875 237.082031 90.714844 236.4375 91.390625 C 235.253906 92.613281 234.050781 94.398438 232.570312 97.140625 C 231.496094 99.140625 229.796875 101.320312 228.914062 101.824219 C 228.503906 102.066406 227.746094 102.480469 227.25 102.746094 C 226.34375 103.207031 224.574219 104.953125 223.371094 106.605469 C 223.050781 107.042969 221.78125 108.71875 220.554688 110.3125 C 219.328125 111.902344 218.273438 113.359375 218.210938 113.535156 C 218.148438 113.707031 217.652344 114.167969 217.089844 114.539062 C 215.96875 115.328125 215.816406 115.480469 215.648438 116.238281 C 215.5625 116.542969 215.21875 117.109375 214.851562 117.480469 C 214.316406 118.046875 214.011719 118.199219 213.363281 118.203125 C 212.386719 118.210938 211.566406 118.605469 210.835938 119.390625 C 210.53125 119.695312 210.121094 119.957031 209.90625 119.960938 C 209.6875 119.960938 209.300781 120.203125 209.042969 120.507812 C 208.785156 120.8125 208.460938 121.050781 208.332031 121.054688 C 208.199219 121.054688 207.855469 121.292969 207.574219 121.601562 C 207.296875 121.90625 206.949219 122.144531 206.796875 122.148438 C 206.300781 122.148438 201.058594 126.34375 199.507812 127.980469 C 197.183594 130.441406 195.839844 131.785156 195.722656 131.785156 C 195.71875 131.785156 195.714844 131.78125 195.714844 131.777344 C 195.714844 131.710938 196.039062 131.058594 196.421875 130.339844 C 196.808594 129.621094 197.238281 128.839844 197.367188 128.597656 C 198.523438 126.402344 199.03125 124.035156 199.203125 119.953125 L 199.320312 117.394531 L 198.332031 115.164062 C 197.785156 113.929688 197.34375 112.738281 197.34375 112.523438 C 197.339844 112.285156 196.96875 111.417969 196.507812 110.574219 C 195.785156 109.253906 195.699219 108.953125 195.867188 108.300781 C 196.1875 107.0625 195.6875 103.050781 195.097656 102.101562 C 194.570312 101.214844 193.464844 100.09375 193.136719 100.09375 L 193.132812 100.09375 C 193.027344 100.09375 193.070312 99.832031 193.242188 99.484375 C 193.734375 98.507812 194.066406 96.292969 193.90625 94.839844 C 193.707031 92.730469 193.554688 91.871094 193.105469 91.867188 C 192.839844 91.867188 192.472656 92.171875 191.925781 92.703125 C 191.449219 93.160156 190.308594 94.054688 189.378906 94.691406 C 187.910156 95.695312 187.480469 95.894531 186.246094 96.054688 C 185.464844 96.144531 183.929688 96.476562 182.847656 96.789062 C 181.789062 97.097656 180.359375 97.519531 179.710938 97.714844 C 179.0625 97.894531 177.894531 98.441406 177.117188 98.902344 C 176.339844 99.363281 175.132812 100 174.417969 100.328125 C 172.171875 101.382812 169.042969 103.613281 168.507812 104.570312 C 168.25 105.050781 167.863281 105.550781 167.644531 105.703125 C 167.085938 106.117188 166.59375 106.988281 166.230469 108.183594 C 166.058594 108.769531 165.609375 109.792969 165.203125 110.46875 C 164.816406 111.121094 164.367188 112.164062 164.21875 112.75 C 164.070312 113.339844 163.710938 114.511719 163.433594 115.382812 C 162.773438 117.402344 162.78125 119.3125 163.492188 122.5625 C 164.429688 126.9375 165.019531 128.152344 167.417969 130.523438 C 168.398438 131.496094 169.398438 132.683594 169.617188 133.136719 C 169.859375 133.589844 170.363281 134.324219 170.753906 134.757812 C 171.410156 135.511719 171.914062 136.726562 171.917969 137.636719 C 171.921875 137.875 172.164062 138.785156 172.472656 139.671875 C 173 141.167969 173 141.320312 172.679688 141.796875 C 172.464844 142.144531 172.359375 142.710938 172.382812 143.339844 C 172.480469 144.835938 172.457031 144.859375 171.65625 145.210938 C 171.117188 145.429688 170.878906 145.691406 170.773438 146.167969 C 170.648438 146.800781 170.5625 146.84375 169.414062 146.980469 C 166.925781 147.253906 166.558594 147.363281 166.320312 147.777344 C 166.199219 148.011719 166.0625 148.113281 165.753906 148.113281 C 165.636719 148.113281 165.488281 148.09375 165.304688 148.066406 C 165.183594 148.046875 165.023438 148.039062 164.839844 148.039062 C 164.34375 148.039062 163.671875 148.09375 163.136719 148.207031 C 162.605469 148.300781 162.253906 148.351562 161.992188 148.351562 C 161.6875 148.351562 161.496094 148.28125 161.273438 148.132812 C 160.992188 147.960938 160.339844 147.769531 159.820312 147.683594 C 159.675781 147.664062 159.539062 147.65625 159.40625 147.65625 C 158.347656 147.652344 157.585938 148.234375 156.84375 149.589844 C 155.683594 151.699219 154.609375 152.984375 153.722656 153.359375 C 152.597656 153.820312 150.914062 154.980469 149.664062 156.136719 C 149.125 156.660156 148.523438 157.164062 148.347656 157.292969 C 148.175781 157.402344 147.574219 157.839844 147.011719 158.234375 C 146.449219 158.628906 145.695312 159.023438 145.347656 159.089844 C 145 159.15625 144.570312 159.441406 144.398438 159.726562 C 144.203125 159.984375 143.792969 160.269531 143.46875 160.359375 C 142.777344 160.515625 141.9375 161.214844 141.9375 161.648438 C 141.941406 161.800781 141.769531 162.082031 141.574219 162.277344 C 140.90625 162.867188 138.441406 163.75 137.464844 163.753906 C 136.511719 163.761719 135.238281 164.265625 135.238281 164.636719 C 135.242188 164.742188 134.699219 164.941406 134.027344 165.097656 C 133.359375 165.253906 132.191406 165.757812 131.4375 166.21875 C 130.703125 166.679688 129.945312 167.050781 129.792969 167.050781 C 129.640625 167.050781 128.96875 166.621094 128.316406 166.085938 C 127.664062 165.546875 126.992188 165.117188 126.835938 165.117188 C 126.507812 165.117188 123.859375 163.746094 123.316406 163.292969 C 123.144531 163.140625 122.316406 162.777344 121.472656 162.457031 C 120.644531 162.136719 119.753906 161.792969 119.515625 161.6875 C 119.277344 161.578125 118.671875 161.429688 118.171875 161.367188 C 117.671875 161.285156 117.023438 161.050781 116.761719 160.855469 C 116.476562 160.640625 115.390625 160.015625 114.328125 159.457031 C 112.304688 158.40625 111.695312 157.976562 109.757812 156.207031 C 109.105469 155.605469 108.019531 154.785156 107.324219 154.378906 C 106.648438 153.96875 105.582031 153.128906 104.972656 152.546875 C 104.363281 151.941406 103.296875 151.058594 102.621094 150.542969 C 101.96875 150.046875 101.074219 149.226562 100.683594 148.773438 C 100.121094 148.132812 99.796875 147.914062 99.285156 147.914062 C 99.28125 147.914062 99.277344 147.914062 99.269531 147.914062 C 98.925781 147.914062 98.511719 148.027344 98.382812 148.15625 C 98.363281 148.175781 98.347656 148.1875 98.332031 148.1875 C 98.21875 148.1875 98.167969 147.710938 98.179688 146.574219 C 98.171875 145.402344 98.039062 144.277344 97.773438 143.300781 C 97.351562 141.871094 97.351562 141.828125 97.757812 141.089844 C 97.972656 140.652344 98.621094 139.890625 99.15625 139.367188 C 99.761719 138.800781 100.234375 138.125 100.320312 137.734375 C 100.402344 137.363281 100.53125 137.058594 100.617188 137.058594 C 100.707031 137.058594 101.136719 136.578125 101.585938 135.96875 C 102.015625 135.378906 102.769531 134.507812 103.222656 134.027344 C 103.695312 133.546875 104.148438 132.875 104.210938 132.546875 C 104.296875 132.199219 104.554688 131.632812 104.765625 131.285156 C 104.980469 130.917969 105.152344 130.371094 105.152344 130.027344 C 105.148438 129.65625 105.253906 129.4375 105.472656 129.4375 C 105.90625 129.4375 107.175781 128.105469 107.863281 126.929688 C 108.636719 125.582031 113.265625 120.847656 114.410156 120.253906 C 114.910156 119.992188 115.363281 119.640625 115.425781 119.488281 C 115.488281 119.316406 115.664062 119.183594 115.792969 119.183594 C 115.945312 119.183594 116.289062 118.921875 116.589844 118.613281 C 116.871094 118.308594 117.929688 117.609375 118.941406 117.039062 C 119.957031 116.492188 120.90625 115.855469 121.058594 115.640625 C 121.207031 115.421875 121.488281 115.246094 121.664062 115.246094 C 121.835938 115.246094 122.785156 114.695312 123.78125 114.039062 C 124.773438 113.382812 125.699219 112.835938 125.875 112.8125 C 126.046875 112.8125 126.566406 112.570312 127.039062 112.285156 C 127.515625 112 128.292969 111.5625 128.769531 111.324219 C 129.242188 111.082031 130.214844 110.535156 130.929688 110.09375 C 132.527344 109.152344 133.996094 108.449219 134.40625 108.449219 C 134.582031 108.449219 134.773438 108.292969 134.839844 108.121094 C 134.902344 107.945312 135.183594 107.75 135.421875 107.660156 C 135.679688 107.59375 136.242188 107.179688 136.671875 106.789062 C 137.082031 106.371094 137.75 105.871094 138.117188 105.652344 C 139.023438 105.148438 141.011719 103.726562 142.21875 102.699219 C 142.757812 102.21875 143.683594 101.476562 144.308594 101.015625 C 144.914062 100.578125 146.140625 99.445312 147.070312 98.527344 C 147.972656 97.613281 148.878906 96.871094 149.050781 96.867188 C 149.246094 96.867188 149.636719 96.625 149.894531 96.34375 C 150.175781 96.082031 150.5625 95.773438 150.757812 95.707031 C 150.929688 95.644531 151.273438 95.183594 151.53125 94.683594 C 151.765625 94.207031 152.046875 93.8125 152.132812 93.8125 C 152.371094 93.8125 154.113281 91.480469 154.113281 91.175781 C 154.109375 91.027344 154.28125 90.699219 154.496094 90.460938 C 154.714844 90.199219 155.054688 89.566406 155.269531 89.023438 C 155.484375 88.480469 155.824219 87.675781 156.0625 87.238281 C 156.277344 86.804688 156.46875 86.261719 156.464844 86.066406 C 156.464844 85.871094 156.679688 85.347656 156.957031 84.914062 C 157.410156 84.171875 157.429688 83.890625 157.410156 80.117188 C 157.386719 76.363281 157.363281 76.039062 156.90625 75.238281 C 156.621094 74.761719 156.402344 74.265625 156.398438 74.113281 C 156.398438 73.980469 156.222656 73.722656 156.007812 73.570312 C 155.789062 73.421875 155.375 72.75 155.089844 72.078125 C 154.605469 70.871094 153.539062 69.511719 153.105469 69.507812 C 153.105469 69.507812 153.105469 69.507812 153.101562 69.507812 C 152.863281 69.507812 152.488281 69.246094 150.710938 67.832031 C 150.210938 67.464844 149.605469 67.144531 149.34375 67.144531 C 149.339844 67.144531 149.339844 67.144531 149.335938 67.144531 C 149.074219 67.144531 148.515625 66.972656 148.082031 66.761719 C 147.324219 66.363281 144.550781 66.019531 142.25 66.011719 C 142.183594 66.011719 142.121094 66.011719 142.054688 66.011719 C 139.390625 66.050781 135.300781 66.527344 134.933594 66.878906 C 134.71875 67.074219 134.242188 67.226562 133.875 67.230469 C 133.503906 67.230469 132.878906 67.429688 132.488281 67.671875 C 132.101562 67.914062 131.648438 68.109375 131.496094 68.109375 C 131.324219 68.113281 130.890625 68.246094 130.523438 68.421875 C 130.132812 68.597656 129.464844 68.796875 129.007812 68.882812 C 128.554688 68.953125 128.121094 69.171875 128.058594 69.34375 C 127.992188 69.496094 127.800781 69.652344 127.625 69.652344 C 127.453125 69.652344 126.871094 69.917969 126.308594 70.246094 C 125.746094 70.550781 125.011719 70.96875 124.6875 71.144531 C 124.34375 71.320312 124.019531 71.582031 123.957031 71.753906 C 123.890625 71.929688 123.742188 72.058594 123.632812 72.058594 C 123.113281 72.0625 119.398438 74.558594 119.011719 75.167969 C 118.796875 75.515625 118.195312 76.0625 117.675781 76.367188 C 116.574219 77.023438 115.132812 78.421875 114.402344 79.554688 C 114.101562 79.988281 113.714844 80.402344 113.519531 80.46875 C 113.324219 80.535156 112.894531 80.972656 112.59375 81.449219 C 112.292969 81.929688 111.949219 82.324219 111.839844 82.324219 C 111.753906 82.324219 111.496094 82.78125 111.28125 83.347656 C 111.066406 83.933594 110.726562 84.585938 110.511719 84.847656 C 110.273438 85.085938 110.101562 85.390625 110.101562 85.523438 C 110.101562 85.652344 109.953125 85.871094 109.78125 86.023438 C 109.371094 86.351562 108.601562 88.113281 108.601562 88.65625 C 108.605469 88.871094 108.410156 89.15625 108.171875 89.285156 C 107.890625 89.441406 107.742188 89.746094 107.746094 90.132812 C 107.746094 90.480469 107.597656 91.175781 107.429688 91.675781 C 107.257812 92.175781 107.109375 92.894531 107.113281 93.261719 C 107.113281 93.632812 106.921875 94.347656 106.667969 94.871094 C 106.257812 95.742188 106.238281 96.066406 106.34375 99.535156 C 106.421875 101.597656 106.585938 103.832031 106.742188 104.480469 C 107.074219 106.042969 107.101562 110.597656 106.777344 111.207031 C 106.648438 111.46875 106.480469 112.421875 106.421875 113.335938 C 106.363281 114.484375 106.195312 115.179688 105.914062 115.59375 C 105.699219 115.921875 105.507812 116.355469 105.507812 116.574219 C 105.511719 117.160156 104.851562 118.875 104.398438 119.378906 C 104.183594 119.617188 104.011719 119.898438 104.011719 119.988281 C 104.011719 120.246094 102.445312 122.597656 102.164062 122.796875 C 102.011719 122.882812 101.691406 123.296875 101.410156 123.734375 C 101.152344 124.167969 100.746094 124.734375 100.488281 125.019531 C 100.226562 125.300781 99.691406 125.976562 99.28125 126.542969 C 98.875 127.089844 98.269531 127.699219 97.945312 127.875 C 97.621094 128.050781 97.277344 128.441406 97.214844 128.726562 C 97.152344 129.027344 97 129.269531 96.914062 129.269531 C 96.804688 129.269531 96.527344 129.726562 96.269531 130.269531 C 95.992188 130.816406 95.453125 131.578125 95.042969 131.96875 C 94.632812 132.339844 94.097656 133.039062 93.859375 133.496094 C 93.625 133.972656 93.132812 134.648438 92.785156 135.019531 C 92.398438 135.398438 92.226562 135.542969 91.980469 135.542969 C 91.839844 135.539062 91.679688 135.496094 91.445312 135.417969 C 90.96875 135.25 90.394531 135.167969 89.828125 135.167969 C 89.023438 135.164062 88.246094 135.324219 87.828125 135.632812 C 87.265625 136.027344 87.203125 136.199219 87.210938 137.242188 C 87.214844 138.261719 87.152344 138.4375 86.738281 138.566406 C 85.832031 138.855469 84.820312 139.859375 84.089844 141.230469 C 83.683594 141.96875 83.339844 142.773438 83.34375 143.011719 C 83.34375 143.230469 83.042969 143.707031 82.699219 144.058594 C 82.136719 144.625 82.050781 144.886719 82.058594 145.90625 C 82.0625 146.859375 82.175781 147.25 82.71875 147.964844 C 83.132812 148.546875 83.375 149.132812 83.378906 149.585938 C 83.382812 150.105469 83.578125 150.519531 84.015625 150.992188 C 84.753906 151.746094 86.398438 152.753906 86.925781 152.757812 C 86.929688 152.757812 86.929688 152.757812 86.929688 152.757812 C 87.125 152.757812 87.40625 152.929688 87.558594 153.144531 C 88.082031 153.855469 89.40625 154.695312 90.492188 155.015625 C 91.425781 155.289062 92.058594 155.808594 95.5 159.152344 C 97.65625 161.265625 100.09375 163.59375 100.921875 164.351562 C 101.75 165.105469 103.753906 167.023438 105.386719 168.621094 C 107.019531 170.195312 108.433594 171.511719 108.523438 171.511719 C 108.609375 171.511719 109.046875 171.8125 109.480469 172.15625 C 109.914062 172.523438 110.808594 173.253906 111.460938 173.792969 C 112.113281 174.3125 112.808594 174.894531 112.984375 175.042969 C 113.15625 175.195312 113.550781 175.453125 113.851562 175.601562 C 114.15625 175.753906 114.789062 176.292969 115.289062 176.765625 C 115.789062 177.261719 116.660156 177.886719 117.246094 178.1875 C 117.8125 178.488281 118.679688 178.980469 119.179688 179.28125 C 120.769531 180.335938 125.460938 182.652344 126.675781 182.996094 C 127.328125 183.1875 128.652344 183.742188 129.609375 184.238281 L 131.347656 185.136719 L 134.164062 185.164062 C 135.722656 185.179688 140.683594 185.367188 145.214844 185.601562 C 149.226562 185.792969 153.761719 185.925781 156.011719 185.933594 C 156.300781 185.933594 156.554688 185.933594 156.761719 185.929688 L 160.097656 185.867188 L 161.855469 190.195312 L 162.050781 194.316406 C 162.269531 198.503906 162.496094 199.976562 163.0625 200.796875 C 163.257812 201.035156 163.394531 201.730469 163.398438 202.378906 C 163.402344 203.59375 163.691406 204.59375 164.148438 204.9375 C 164.582031 205.257812 164.738281 205.972656 164.4375 206.367188 C 164.285156 206.5625 163.875 206.867188 163.488281 207.066406 C 162.863281 207.394531 162.796875 207.546875 162.675781 208.785156 C 162.59375 209.566406 162.640625 210.609375 162.796875 211.214844 C 162.996094 212.082031 162.976562 212.339844 162.71875 212.625 C 162.199219 213.191406 161.796875 214.386719 161.628906 215.753906 C 161.507812 216.90625 161.441406 217.035156 160.644531 217.496094 L 159.800781 217.976562 L 159.808594 219.539062 C 159.816406 220.886719 159.753906 221.167969 159.324219 221.605469 C 157.363281 223.546875 156.808594 225.199219 157.660156 226.558594 C 157.902344 226.972656 158.121094 227.46875 158.121094 227.640625 C 158.121094 227.816406 157.539062 228.425781 156.851562 228.996094 C 156.140625 229.5625 154.910156 230.847656 154.09375 231.832031 C 152.199219 234.117188 152.074219 234.683594 151.996094 240.152344 C 151.949219 243.601562 151.996094 244.402344 152.304688 245.074219 C 152.632812 245.832031 152.632812 245.960938 152.269531 246.808594 C 152.078125 247.332031 151.820312 247.917969 151.714844 248.136719 C 151.285156 248.941406 150.457031 251.507812 150.457031 251.984375 C 150.460938 252.246094 150.265625 252.699219 150.03125 253.007812 C 149.792969 253.3125 149.601562 253.855469 149.605469 254.203125 C 149.605469 254.550781 149.476562 254.875 149.304688 254.941406 C 148.894531 255.09375 148.296875 256.617188 148.085938 257.964844 C 148.003906 258.550781 147.8125 259.441406 147.6875 259.917969 C 147.535156 260.398438 147.347656 261.570312 147.265625 262.523438 C 147.1875 263.480469 146.996094 264.609375 146.871094 265.019531 C 146.742188 265.433594 146.636719 266.042969 146.636719 266.347656 C 146.640625 266.671875 146.449219 267.34375 146.214844 267.867188 C 145.976562 268.390625 145.789062 269.28125 145.792969 269.820312 C 145.792969 270.453125 145.667969 270.929688 145.472656 271.105469 C 145.300781 271.257812 145.109375 271.714844 145.046875 272.167969 C 144.984375 272.605469 144.773438 273.496094 144.601562 274.167969 C 144.453125 274.820312 144.308594 275.730469 144.308594 276.164062 C 144.3125 276.597656 144.121094 277.292969 143.863281 277.730469 C 143.328125 278.644531 143.441406 279.816406 144.136719 280.308594 C 144.550781 280.589844 144.574219 280.761719 144.449219 282 C 144.367188 282.761719 144.222656 283.519531 144.113281 283.714844 C 144.027344 283.914062 143.910156 286.105469 143.882812 288.597656 C 143.835938 291.855469 143.710938 293.375 143.5 294.003906 C 143.328125 294.480469 143.117188 295.480469 143.058594 296.242188 C 142.914062 297.566406 142.59375 298.457031 141.820312 299.546875 C 141.324219 300.242188 140.53125 301.699219 139.738281 303.375 C 139.054688 304.8125 138.40625 305.421875 137.539062 305.425781 C 137.238281 305.429688 136.417969 305.824219 135.703125 306.304688 C 134.992188 306.785156 134.277344 307.179688 134.128906 307.183594 C 133.5 307.1875 129.554688 310.59375 129.554688 311.113281 C 129.558594 311.265625 129.300781 311.722656 129 312.136719 C 128.699219 312.550781 128.074219 313.722656 127.605469 314.769531 C 126.34375 317.574219 126.277344 317.726562 126 318.074219 C 125.871094 318.25 125.550781 319.074219 125.292969 319.921875 C 124.699219 321.921875 124.378906 322.640625 124.074219 322.640625 C 123.921875 322.644531 123.511719 323.015625 123.148438 323.449219 C 121.1875 325.847656 119.964844 327.480469 119.148438 328.765625 C 118.632812 329.550781 117.535156 330.8125 116.695312 331.601562 C 115.832031 332.363281 114.949219 333.34375 114.734375 333.800781 C 114.003906 335.214844 112.980469 337.933594 112.28125 340.390625 C 111.898438 341.695312 111.171875 343.757812 110.679688 344.953125 C 110.167969 346.171875 109.65625 347.890625 109.488281 348.867188 C 109.34375 349.820312 109.027344 351.472656 108.792969 352.558594 C 108.5625 353.625 108.351562 354.859375 108.355469 355.273438 C 108.355469 355.683594 108.210938 356.574219 108.019531 357.226562 C 107.359375 359.640625 106.808594 365.328125 106.976562 368.148438 C 107.070312 369.773438 107.09375 369.882812 108.292969 371.609375 L 109.515625 373.382812 L 115.152344 374.152344 L 120.789062 374.925781 L 123.496094 374.257812 L 126.179688 373.59375 L 127.511719 371.546875 C 128.238281 370.414062 128.925781 369.128906 129.011719 368.675781 C 129.265625 367.523438 129.054688 357.261719 128.742188 355.765625 C 128.097656 352.734375 128.371094 347.480469 129.269531 345.328125 C 129.417969 344.980469 129.527344 344.566406 129.523438 344.394531 C 129.523438 343.960938 129.910156 343.199219 130.382812 342.742188 C 130.578125 342.542969 130.8125 341.890625 130.894531 341.304688 C 130.957031 340.699219 131.125 340.175781 131.257812 340.132812 C 131.386719 340.089844 131.554688 339.328125 131.679688 338.4375 C 131.785156 337.546875 131.953125 336.742188 132.082031 336.613281 C 132.1875 336.503906 132.296875 336.175781 132.292969 335.917969 C 132.292969 335.65625 132.527344 335.285156 132.808594 335.089844 C 133.113281 334.914062 133.390625 334.566406 133.457031 334.347656 C 133.539062 334.132812 134.015625 333.628906 134.511719 333.238281 C 135.027344 332.863281 135.609375 332.253906 135.824219 331.90625 C 136.019531 331.535156 136.320312 331.25 136.492188 331.25 C 136.644531 331.25 137.292969 330.898438 137.917969 330.484375 C 138.566406 330.066406 139.148438 329.71875 139.257812 329.71875 C 139.367188 329.714844 140.078125 329.082031 140.851562 328.296875 C 141.628906 327.511719 142.511719 326.8125 142.816406 326.726562 C 143.335938 326.589844 144.609375 325.804688 145.578125 324.972656 C 145.835938 324.753906 146.441406 323.992188 146.910156 323.253906 C 148.007812 321.617188 148.265625 321.402344 149.824219 320.742188 C 150.664062 320.390625 151.59375 319.710938 152.628906 318.730469 C 153.46875 317.921875 154.289062 317.265625 154.441406 317.265625 C 154.871094 317.261719 158.835938 313.117188 159.070312 312.421875 C 159.199219 312.074219 159.371094 311.8125 159.480469 311.8125 C 159.585938 311.8125 159.84375 311.441406 160.082031 310.984375 C 161.410156 308.332031 162.503906 306.242188 162.695312 306.066406 C 162.804688 305.9375 162.890625 305.699219 162.886719 305.523438 C 162.886719 305.328125 163.035156 304.871094 163.230469 304.523438 C 163.421875 304.15625 163.65625 303.566406 163.742188 303.21875 C 164.058594 302.066406 165.320312 298.894531 165.835938 298.023438 C 166.09375 297.566406 166.433594 296.738281 166.539062 296.175781 C 166.667969 295.632812 166.921875 294.871094 167.074219 294.523438 C 167.246094 294.152344 167.605469 292.894531 167.878906 291.699219 C 168.410156 289.394531 168.8125 288.15625 169.519531 286.632812 L 169.96875 285.71875 L 172.699219 285.703125 C 174.976562 285.691406 175.625 285.601562 176.402344 285.25 C 176.984375 284.964844 177.808594 284.808594 178.566406 284.804688 C 180.125 284.796875 180.535156 284.488281 180.679688 283.273438 C 180.765625 282.730469 180.933594 282.1875 181.085938 282.035156 C 181.234375 281.882812 181.425781 281.273438 181.488281 280.710938 C 181.550781 280.144531 181.761719 279.363281 181.933594 278.972656 C 182.085938 278.578125 182.234375 278.125 182.234375 277.972656 C 182.230469 277.796875 182.382812 277.558594 182.554688 277.40625 C 182.726562 277.253906 182.875 276.925781 182.875 276.644531 C 182.871094 276.058594 183.429688 274.882812 183.96875 274.339844 C 184.203125 274.097656 184.375 273.773438 184.375 273.597656 C 184.375 273.425781 184.460938 273.273438 184.589844 273.273438 C 184.699219 273.269531 185.085938 272.640625 185.425781 271.878906 C 185.769531 271.117188 186.132812 270.441406 186.261719 270.355469 C 186.394531 270.289062 186.605469 269.679688 186.730469 269.03125 C 186.898438 268.175781 187.070312 267.738281 187.222656 267.742188 C 187.320312 267.742188 187.410156 267.914062 187.484375 268.265625 C 187.574219 268.613281 187.726562 268.957031 187.835938 269.023438 C 187.945312 269.109375 188.035156 269.390625 188.035156 269.652344 C 188.035156 269.933594 188.214844 270.386719 188.429688 270.667969 C 188.867188 271.230469 189.570312 273.179688 189.574219 273.851562 C 189.578125 274.089844 189.796875 274.542969 190.035156 274.867188 C 190.449219 275.386719 190.515625 275.691406 190.484375 277.601562 C 190.472656 279.160156 190.5625 279.921875 190.804688 280.398438 C 190.980469 280.742188 191.132812 281.175781 191.132812 281.371094 C 191.136719 281.566406 191.332031 281.976562 191.570312 282.28125 C 191.8125 282.582031 192.007812 283.058594 192.011719 283.339844 C 192.015625 283.859375 192.339844 284.292969 194.410156 286.453125 C 195.667969 287.757812 197.261719 288.59375 198.535156 288.597656 C 198.546875 288.597656 198.554688 288.597656 198.5625 288.597656 C 198.570312 288.597656 198.578125 288.597656 198.585938 288.597656 C 199.085938 288.597656 199.257812 288.734375 199.496094 289.285156 C 200.507812 291.710938 201.082031 293.921875 201.425781 296.933594 C 201.5625 298.128906 201.804688 299.40625 201.980469 299.796875 C 202.15625 300.164062 202.292969 300.855469 202.292969 301.355469 C 202.300781 302.375 202.722656 304.671875 203.632812 308.636719 C 203.746094 309.113281 203.835938 309.851562 203.859375 310.285156 C 203.863281 310.980469 203.757812 311.109375 202.589844 311.898438 C 201.855469 312.359375 201.015625 313.164062 200.628906 313.730469 C 199.40625 315.5625 198.289062 317.128906 197.964844 317.476562 C 197.769531 317.652344 197.320312 318.394531 196.953125 319.109375 C 196.589844 319.808594 195.988281 320.722656 195.667969 321.113281 C 195.320312 321.507812 195.042969 321.964844 195.042969 322.117188 C 195.042969 322.265625 194.765625 322.832031 194.402344 323.355469 C 193.800781 324.292969 193.269531 326.160156 193.019531 328.375 C 192.9375 329.113281 192.679688 329.636719 192.101562 330.332031 C 191.195312 331.402344 190.765625 332.121094 190.769531 332.511719 C 190.769531 332.660156 190.574219 332.921875 190.339844 333.078125 C 190.101562 333.230469 189.90625 333.511719 189.910156 333.730469 C 189.910156 334.183594 188.132812 337.816406 187.617188 338.386719 C 187.421875 338.601562 186.992188 338.78125 186.664062 338.78125 C 186.339844 338.78125 185.996094 338.894531 185.910156 339.023438 C 185.84375 339.15625 185.371094 339.4375 184.871094 339.660156 C 183.511719 340.253906 183.167969 340.773438 183.089844 342.335938 C 183.050781 343.097656 182.796875 344.203125 182.519531 344.878906 C 182.242188 345.53125 181.855469 346.660156 181.6875 347.378906 C 181.347656 348.726562 180.472656 351.074219 179.9375 352.097656 C 179.699219 352.488281 179.621094 353.378906 179.628906 355.070312 C 179.644531 357.695312 179.953125 358.605469 181.125 359.507812 C 181.453125 359.769531 182.195312 360.414062 182.78125 360.976562 C 183.390625 361.558594 183.933594 362.011719 184 362.011719 C 184.089844 362.011719 184.371094 362.203125 184.632812 362.441406 C 184.914062 362.65625 185.585938 363 186.152344 363.191406 C 186.695312 363.382812 187.300781 363.640625 187.476562 363.75 C 188.25 364.210938 188.84375 364.363281 190.578125 364.367188 C 190.9375 364.367188 191.34375 364.363281 191.8125 364.351562 C 192.9375 364.316406 193.992188 364.300781 194.570312 364.304688 C 194.8125 364.304688 194.972656 364.308594 195.019531 364.3125 C 195.410156 364.355469 196.375 366.628906 196.378906 367.515625 C 196.382812 367.996094 196.578125 368.492188 196.90625 368.902344 C 197.191406 369.226562 197.472656 369.617188 197.519531 369.722656 C 197.539062 369.832031 199.496094 370.753906 201.820312 371.761719 L 206.03125 373.601562 L 211.578125 373.570312 L 217.101562 373.539062 L 218.023438 371.519531 L 218.921875 369.515625 L 218.363281 366.828125 C 217.851562 364.402344 217.742188 364.078125 217.113281 363.515625 C 216.742188 363.195312 216.351562 362.914062 216.265625 362.914062 L 216.261719 362.914062 C 216.175781 362.914062 216.023438 362.71875 215.957031 362.484375 C 215.804688 361.960938 214.386719 360.582031 213.84375 360.433594 C 213.648438 360.347656 213.410156 360.089844 213.320312 359.828125 C 213.035156 358.917969 212.335938 358.164062 211.402344 357.757812 C 210.816406 357.5 210.339844 357.113281 210.140625 356.742188 C 209.988281 356.398438 209.445312 355.902344 208.921875 355.621094 C 208.292969 355.277344 208.007812 354.976562 208.007812 354.652344 C 208.003906 354 207.785156 353.71875 207.132812 353.527344 C 206.441406 353.316406 206.265625 353.054688 206.261719 352.210938 C 206.257812 351.734375 206.105469 351.429688 205.777344 351.191406 C 205.277344 350.890625 205.277344 350.890625 206.140625 350.476562 C 207.113281 350.015625 207.347656 349.296875 206.886719 348.191406 C 206.585938 347.511719 205.679688 347.148438 204.207031 347.144531 C 204.179688 347.144531 204.15625 347.144531 204.128906 347.144531 C 204.09375 347.144531 204.058594 347.144531 204.023438 347.144531 C 203.257812 347.144531 203.164062 347.054688 202.871094 346.371094 C 202.253906 344.898438 202.382812 344.617188 204.472656 342.414062 C 205.550781 341.300781 206.410156 340.320312 206.410156 340.210938 C 206.410156 340.101562 206.820312 339.753906 207.335938 339.425781 C 207.832031 339.097656 208.546875 338.550781 208.890625 338.203125 C 209.882812 337.261719 211.046875 336.191406 211.496094 335.800781 C 211.714844 335.605469 212.253906 335.078125 212.703125 334.601562 C 213.824219 333.378906 214.816406 332.503906 215.722656 331.894531 C 216.175781 331.585938 216.542969 331.28125 216.542969 331.214844 C 216.542969 331.109375 217.832031 329.363281 219.765625 326.835938 C 220.003906 326.511719 220.367188 325.878906 220.539062 325.421875 C 220.730469 324.988281 221.011719 324.507812 221.160156 324.378906 C 221.335938 324.269531 221.613281 323.574219 221.804688 322.855469 C 222.25 321.226562 222.804688 319.8125 223.746094 317.855469 C 224.261719 316.765625 224.515625 315.898438 224.597656 314.8125 C 224.679688 313.964844 224.847656 313.164062 224.953125 312.988281 C 225.082031 312.835938 225.246094 311.121094 225.324219 309.082031 C 225.375 306.933594 225.539062 305.261719 225.691406 304.976562 C 225.839844 304.695312 226.027344 303.242188 226.148438 301.722656 C 226.25 300.203125 226.410156 297.945312 226.53125 296.6875 C 226.878906 292.757812 226.753906 286.164062 226.289062 284.300781 C 225.78125 282.304688 225.792969 277.078125 226.308594 276.054688 C 226.480469 275.726562 226.628906 275.273438 226.628906 275.054688 C 226.625 274.535156 225.199219 271.375 224.785156 270.898438 C 224.546875 270.640625 224.433594 270.097656 224.429688 269.210938 C 224.425781 268.492188 224.269531 267.539062 224.09375 267.128906 C 223.894531 266.652344 223.757812 265.675781 223.753906 264.699219 C 223.746094 263.355469 223.65625 262.988281 223.308594 262.640625 C 222.980469 262.316406 222.871094 261.929688 222.867188 261.105469 C 222.863281 260.453125 222.6875 259.695312 222.445312 259.21875 C 221.917969 258.222656 221.425781 255.082031 221.433594 252.78125 C 221.445312 251.023438 221.804688 249.308594 222.363281 248.328125 C 222.792969 247.566406 222.777344 244.917969 222.316406 243.96875 C 221.945312 243.210938 221.234375 240.480469 221.230469 239.828125 C 221.230469 239.613281 221.035156 239.332031 220.796875 239.179688 C 220.554688 239.03125 220.359375 238.683594 220.359375 238.402344 C 220.355469 238.140625 220.203125 237.558594 220.027344 237.125 C 219.851562 236.714844 219.695312 236.042969 219.691406 235.652344 C 219.691406 235.261719 219.492188 234.699219 219.253906 234.394531 C 219.011719 234.09375 218.816406 233.769531 218.816406 233.636719 C 218.8125 233.53125 218.617188 233.269531 218.378906 233.054688 C 218.050781 232.773438 217.941406 232.382812 217.9375 231.558594 C 217.910156 230.367188 217.3125 228.417969 216.789062 227.792969 C 216.289062 227.230469 216.085938 226.210938 216.433594 225.992188 C 216.582031 225.882812 217.363281 225.792969 218.164062 225.789062 C 219.8125 225.777344 220.871094 225.316406 221.082031 224.492188 C 221.316406 223.558594 220.964844 218.722656 220.613281 218.050781 C 220.4375 217.703125 220.238281 216.882812 220.148438 216.230469 C 219.945312 214.667969 219.542969 212.71875 219.347656 212.4375 C 219.257812 212.308594 219.105469 211.746094 219.015625 211.140625 C 218.925781 210.554688 218.679688 209.730469 218.484375 209.296875 C 218.265625 208.886719 217.976562 207.609375 217.820312 206.480469 C 217.660156 205.355469 217.433594 203.683594 217.300781 202.773438 C 217.097656 201.472656 217.117188 200.972656 217.328125 200.386719 C 217.523438 199.886719 217.621094 198.367188 217.628906 195.527344 C 217.648438 191.597656 217.890625 188.40625 218.335938 186.734375 C 218.464844 186.320312 218.539062 184.367188 218.53125 182.394531 C 218.515625 179.574219 218.421875 178.445312 218.066406 177.105469 C 217.425781 174.503906 217.085938 172.164062 217.34375 172.007812 C 217.839844 171.703125 218.074219 170.441406 218.164062 167.621094 C 218.257812 165.0625 218.210938 164.410156 217.8125 162.851562 C 217.503906 161.636719 217.324219 160.230469 217.292969 158.644531 C 217.230469 155.042969 217.675781 153.632812 220.082031 150.058594 C 220.425781 149.535156 221.390625 147.773438 222.292969 146.035156 C 222.546875 145.554688 222.871094 145.011719 223 144.835938 C 223.128906 144.664062 223.320312 144.269531 223.40625 143.988281 C 223.492188 143.683594 223.878906 143.007812 224.242188 142.464844 C 224.757812 141.703125 225.191406 141.375 225.902344 141.132812 C 226.445312 140.957031 227.15625 140.5625 227.523438 140.296875 C 228.128906 139.796875 228.148438 139.6875 228.265625 137.5625 C 228.347656 136.324219 228.511719 135.128906 228.640625 134.867188 C 228.769531 134.605469 228.9375 133.652344 229 132.71875 C 229.140625 130.980469 229.523438 129.917969 230.429688 128.828125 C 230.707031 128.476562 231.007812 127.933594 231.070312 127.628906 C 231.15625 127.324219 231.414062 126.847656 231.648438 126.5625 C 231.886719 126.28125 232.082031 125.953125 232.078125 125.824219 C 232.078125 125.671875 232.421875 124.933594 232.828125 124.171875 C 233.257812 123.386719 233.730469 122.410156 233.898438 121.996094 C 234.09375 121.582031 234.328125 121.082031 234.433594 120.90625 C 234.542969 120.734375 235.101562 119.644531 235.65625 118.515625 C 236.214844 117.382812 237.117188 115.945312 237.652344 115.335938 C 239.417969 113.308594 239.804688 112.808594 239.804688 112.523438 C 239.804688 112.371094 239.953125 112.199219 240.128906 112.109375 C 240.539062 111.957031 242.96875 108.625 243.351562 107.710938 C 243.800781 106.601562 243.695312 106.730469 247.355469 103.261719 C 248.304688 102.367188 249.273438 101.515625 249.46875 101.40625 C 249.816406 101.207031 251.367188 99.726562 254.320312 96.800781 C 254.683594 96.429688 255.375 95.582031 255.847656 94.90625 C 256.320312 94.230469 256.855469 93.621094 257.03125 93.554688 C 257.398438 93.421875 258.367188 92.113281 259.203125 90.699219 C 259.503906 90.15625 260.277344 89.21875 260.945312 88.585938 C 261.589844 87.953125 262.410156 86.992188 262.730469 86.492188 C 263.054688 85.96875 263.65625 85.183594 264.085938 84.769531 C 265.035156 83.8125 266.304688 82.113281 266.945312 80.914062 C 267.71875 79.476562 268.644531 78.410156 269.550781 77.949219 C 270.871094 77.269531 272.03125 76.089844 272.179688 75.265625 C 272.265625 74.875 272.542969 74.332031 272.824219 74.070312 C 273.101562 73.808594 273.382812 73.308594 273.445312 72.980469 C 273.59375 72.308594 274.042969 71.523438 275.675781 69.148438 C 276.277344 68.257812 276.835938 67.34375 276.921875 67.105469 C 277.050781 66.648438 278.625 65.769531 279.277344 65.765625 C 279.449219 65.765625 279.882812 65.503906 280.246094 65.199219 C 280.808594 64.71875 280.914062 64.476562 280.910156 63.675781 C 280.90625 62.742188 280.925781 62.71875 281.640625 62.714844 C 282.03125 62.714844 282.789062 62.472656 283.328125 62.1875 C 283.847656 61.902344 284.515625 61.59375 284.820312 61.503906 C 285.101562 61.417969 285.835938 61.109375 286.460938 60.824219 C 287.066406 60.539062 287.867188 60.296875 288.238281 60.292969 C 290.035156 60.285156 291.933594 58.710938 291.921875 57.214844 C 291.917969 56.519531 291.789062 56.304688 291.050781 55.722656 C 290.46875 55.265625 290.171875 55.117188 289.75 55.113281 C 289.628906 55.113281 289.503906 55.125 289.355469 55.144531 C 288.296875 55.304688 286 55.859375 285.613281 56.054688 C 285.582031 56.070312 285.5625 56.078125 285.554688 56.078125 C 285.507812 56.078125 285.671875 55.914062 285.957031 55.664062 C 286.648438 55.074219 287.878906 54.632812 290.171875 54.1875 C 290.953125 54.050781 291.753906 53.832031 291.949219 53.71875 C 292.402344 53.5 292.632812 52.304688 292.433594 51.375 C 292.234375 50.53125 291.644531 50.140625 290.148438 49.890625 C 289.5 49.785156 289.109375 49.699219 289.324219 49.679688 C 289.738281 49.652344 290.789062 47.847656 290.785156 47.175781 C 290.785156 46.914062 290.542969 46.4375 290.238281 46.113281 C 289.796875 45.660156 289.621094 45.558594 288.585938 45.554688 Z M 288.585938 45.554688 "/>
</g>
<path style=" stroke:none;fill-rule:nonzero;fill:rgb(0%,0%,0%);fill-opacity:1;" d="M 278.570312 0.0351562 C 279.832031 0.0390625 280.375 0.125 280.535156 0.328125 C 280.6875 0.5 281.058594 0.691406 281.382812 0.777344 C 281.949219 0.90625 282.253906 1.183594 283.734375 2.847656 C 284.652344 3.90625 285.054688 6.070312 284.71875 8.285156 C 284.46875 10.023438 284.167969 10.65625 283.261719 11.222656 C 282.9375 11.441406 282.378906 11.921875 281.988281 12.316406 C 281.242188 13.0625 279.875 13.449219 278.460938 13.445312 C 277.355469 13.445312 276.214844 13.199219 275.320312 12.699219 C 273.90625 11.925781 272.511719 10.460938 272.203125 9.421875 C 271.871094 8.359375 271.855469 5.320312 272.152344 4.082031 C 272.449219 2.886719 273.914062 1.273438 275.316406 0.574219 C 276.136719 0.15625 276.699219 0.0664062 278.304688 0.0351562 C 278.394531 0.0351562 278.484375 0.0351562 278.570312 0.0351562 Z M 278.570312 0.0351562 "/>
</g>
</svg>
