<?xml version="1.0" encoding="UTF-8"?>
<svg xmlns="http://www.w3.org/2000/svg" xmlns:xlink="http://www.w3.org/1999/xlink" width="375pt" height="374.999991pt" viewBox="0 0 375 374.999991" version="1.2">
<g id="surface1">
<path style=" stroke:none;fill-rule:nonzero;fill:rgb(0%,0%,0%);fill-opacity:1;" d="M 355.199219 182.582031 C 355.125 181.796875 354.820312 179.808594 353.660156 178.992188 C 352.203125 177.96875 346.679688 174.644531 344.910156 172.832031 C 343.136719 171.023438 342.347656 167.984375 340.117188 166.074219 C 337.886719 164.167969 338.96875 165.832031 332.9375 162.640625 C 326.910156 159.449219 314.238281 142.410156 308.820312 134.085938 C 303.398438 125.757812 298.722656 120.699219 288.953125 114.804688 C 288.953125 114.804688 283.195312 100.183594 278.976562 95.222656 C 274.757812 90.261719 271.859375 87.015625 271.859375 87.015625 C 271.859375 87.015625 273.378906 72.503906 264.140625 64.683594 C 254.898438 56.863281 249.167969 55.410156 249.167969 55.410156 L 247.847656 50.585938 C 247.847656 50.585938 242.984375 49.792969 240.28125 47.308594 C 237.574219 44.824219 236.015625 42.578125 236.015625 42.578125 C 236.015625 42.578125 238.792969 38.5 237.597656 36.808594 C 236.398438 35.121094 235.285156 34.167969 235.285156 34.167969 C 235.285156 34.167969 236.714844 26.273438 236.308594 22.199219 C 236.308594 22.195312 236.308594 22.191406 236.308594 22.191406 C 236.339844 12.804688 229.796875 4.363281 220.242188 2.339844 C 209.289062 0.0234375 198.527344 7.011719 196.207031 17.949219 C 195.914062 19.332031 195.769531 20.710938 195.765625 22.074219 C 195.765625 22.074219 195.457031 28.246094 195.226562 30.46875 C 194.992188 32.695312 194.03125 34.40625 194.230469 35.167969 C 194.429688 35.921875 193.144531 39.71875 193.6875 40.550781 C 194.230469 41.386719 194.199219 43.773438 193.984375 44.804688 C 193.765625 45.832031 191.902344 45.859375 190.027344 47.078125 C 188.152344 48.296875 181.996094 46.8125 180.457031 49 C 178.914062 51.183594 178.570312 51.109375 176.695312 52.328125 C 174.820312 53.546875 168.277344 53.058594 162.988281 54.269531 C 157.703125 55.488281 149.515625 56.800781 140.953125 64.140625 C 140.953125 64.140625 121.839844 68.707031 115.5 71.496094 C 115.5 71.496094 106.777344 68.570312 99.515625 70.621094 C 92.253906 72.671875 55.164062 84.921875 51.75 84.914062 C 48.335938 84.910156 39.910156 77.203125 35.917969 76.539062 C 35.730469 76.507812 35.53125 76.511719 35.332031 76.53125 C 32.722656 76.503906 22.195312 76.507812 17.546875 78.136719 C 12.222656 79.996094 13.023438 81.058594 15.152344 81.589844 C 17.28125 82.125 21.277344 80.527344 21.277344 80.527344 L 25.292969 81.035156 C 22.636719 81.269531 20.082031 81.652344 18.347656 82.253906 C 13.023438 84.121094 13.820312 85.183594 15.949219 85.714844 C 18.082031 86.246094 22.074219 84.648438 22.074219 84.648438 L 25.542969 85.085938 C 24.257812 85.28125 23.097656 85.53125 22.1875 85.847656 C 17.363281 87.539062 18.085938 88.503906 20.019531 88.980469 C 21.945312 89.464844 25.566406 88.019531 25.566406 88.019531 L 27.625 88.277344 C 27.679688 89.476562 28.039062 90.550781 28.820312 91.367188 C 32.484375 95.183594 37.34375 94.851562 37.34375 94.851562 C 37.34375 94.851562 39.425781 96.878906 42.269531 97.246094 C 44.714844 97.558594 49 96.175781 54.375 96.238281 C 59.753906 96.300781 92.433594 98.914062 101.769531 96.402344 C 111.105469 93.894531 118.539062 91.878906 118.539062 91.878906 C 118.539062 91.878906 149.484375 86.589844 154.214844 88.84375 C 158.945312 91.101562 160.410156 98.59375 160.410156 98.59375 C 160.410156 98.59375 160.472656 120.316406 164.199219 129.003906 C 167.925781 137.6875 177.730469 154.121094 177.652344 157.875 C 177.574219 161.628906 176.011719 165.605469 176.011719 165.605469 C 176.011719 165.605469 172.75 170.835938 173.355469 174.730469 C 173.96875 178.632812 174.488281 181.253906 174.894531 181.875 C 175.300781 182.503906 176.109375 181.238281 176.671875 186.203125 C 177.234375 191.167969 175.84375 189.257812 175.105469 193.585938 C 174.367188 197.917969 171.472656 203.945312 174.65625 211.796875 C 177.835938 219.648438 177.808594 228.257812 178.441406 230.363281 C 179.070312 232.472656 199.875 236.875 199.875 236.875 C 199.875 236.875 211.339844 249.710938 214.6875 252.578125 C 218.03125 255.4375 219.402344 253.214844 221.296875 256.128906 C 223.195312 259.042969 222.386719 260.308594 225.179688 263.230469 C 227.972656 266.15625 241.167969 288.140625 282.714844 319.742188 C 299.8125 332.746094 298.261719 334.519531 298.261719 334.519531 L 301.1875 338.25 C 301.1875 338.25 304.472656 344.136719 303.082031 347.386719 C 295.46875 365.128906 287.570312 375.003906 301.152344 375.003906 C 314.507812 375.003906 319.085938 370.15625 319.085938 370.15625 C 319.085938 370.15625 321.996094 361.679688 327.246094 360.636719 C 332.5 359.597656 335.597656 353.800781 334.679688 349.65625 C 333.761719 345.519531 330.128906 335.042969 323.65625 330.566406 C 317.179688 326.082031 315.300781 325.503906 310.0625 325.769531 C 310.0625 325.769531 299.667969 314.359375 292.890625 303.953125 C 286.117188 293.542969 279.925781 280.386719 274.667969 276.402344 C 272.308594 274.621094 274.640625 272.785156 273.992188 270.601562 C 273.324219 268.363281 273.925781 260.496094 273.925781 260.496094 C 273.925781 260.496094 281.292969 269.429688 291.644531 264.683594 C 301.996094 259.9375 297.039062 247.164062 297.039062 247.164062 C 297.039062 247.164062 293.855469 236.199219 294.066406 234.089844 C 294.269531 231.980469 292.375 217.21875 291.871094 212.808594 C 291.371094 208.394531 289.003906 202.628906 288.03125 199.3125 C 287.058594 195.996094 286.640625 192.316406 287.109375 191.222656 C 287.585938 190.128906 289.523438 185.511719 288.859375 182.980469 C 288.203125 180.445312 284.511719 169.613281 284.359375 166.949219 C 284.207031 164.285156 282.488281 157.699219 278.582031 153.523438 C 274.679688 149.347656 265.648438 143.367188 265.203125 142.078125 C 264.757812 140.789062 259.332031 137.007812 257.269531 136.566406 C 255.207031 136.128906 251.78125 134.210938 251.78125 134.210938 C 251.78125 134.210938 258.675781 129.089844 258.570312 126.195312 C 258.46875 123.304688 257.367188 120.019531 258.023438 116.929688 C 258.679688 113.835938 258.582031 107.535156 258.582031 107.535156 C 258.582031 107.535156 266.152344 119.542969 270.925781 124.144531 C 270.925781 124.144531 274.640625 132.589844 278.726562 137.042969 C 282.8125 141.496094 307.425781 163.222656 316.40625 169.429688 C 319.484375 171.554688 321.503906 173.234375 322.828125 174.519531 C 314.328125 177.9375 307.632812 185.390625 305.589844 195.015625 C 302.328125 210.382812 312.15625 225.476562 327.539062 228.734375 C 342.921875 231.992188 358.035156 222.175781 361.292969 206.808594 C 363.1875 197.886719 360.660156 189.058594 355.199219 182.582031 "/>
</g>
</svg>
